<?xml version="1.0" standalone="no"?><!DOCTYPE svg PUBLIC "-//W3C//DTD SVG 1.1//EN" "http://www.w3.org/Graphics/SVG/1.1/DTD/svg11.dtd"><svg t="1554568072202" class="icon" style="" viewBox="0 0 1024 1024" version="1.1" xmlns="http://www.w3.org/2000/svg" p-id="1294" xmlns:xlink="http://www.w3.org/1999/xlink" width="200" height="200"><defs><style type="text/css"></style></defs><path d="M611.84 690.688c143.872-9.216 275.968-58.88 397.824-111.104-83.456 55.296-507.904 266.752-510.464 122.88 0.512-17.92 8.192-37.376 23.04-58.368 13.312-20.48 32.256-41.472 50.688-63.488 29.184-33.792 101.376-112.128 125.952-160.768 4.608-9.216 7.68-17.92 8.704-25.088 3.072-43.52-52.736-60.928-135.168-83.456l-15.872 9.728 30.72 25.088c-139.264 24.576-222.72 50.176-324.096 86.016l14.336 35.84-50.688 49.664c8.704 1.536 97.28 31.232 188.928-32.768l0.512-0.512 1.024-1.024c-3.072-4.608-8.704-9.728-16.384-15.872 27.648 1.536 44.032 25.6 41.472 50.176h-11.776c0.512-8.704-1.536-16.384-4.096-23.04-71.168 52.736-154.112 59.392-224.256 34.816v61.952c-34.816 11.776-94.208 49.664-94.208 86.016 2.048 17.92 10.752 24.064 19.456 28.672 77.824 44.032 288.768-15.872 287.744-15.872-75.776 38.912-150.528 69.632-261.632 74.24-147.968-2.56-168.96-100.352-100.864-202.24 66.048-102.912 169.472-194.56 334.848-252.928 48.128-17.408 118.272-35.84 186.88-37.888 97.792 0 193.024 29.184 186.88 123.392-4.608 72.704-106.496 172.544-161.28 245.76-25.088 31.744-28.672 53.248 11.776 50.176z m92.672-330.24c4.096 8.704 5.12 18.432 4.096 28.672 1.024-11.264 0-20.992-4.096-28.672z" p-id="1295"></path></svg>