<?xml version="1.0" standalone="no"?><!DOCTYPE svg PUBLIC "-//W3C//DTD SVG 1.1//EN" "http://www.w3.org/Graphics/SVG/1.1/DTD/svg11.dtd"><svg t="1554568093978" class="icon" style="" viewBox="0 0 1024 1024" version="1.1" xmlns="http://www.w3.org/2000/svg" p-id="1403" xmlns:xlink="http://www.w3.org/1999/xlink" width="200" height="200"><defs><style type="text/css"></style></defs><path d="M511.373 79.67c15.034 0 25.315 3.558 28.922 5.677l325.775 188.12c13.253 7.653 28.939 34.755 28.939 50.1v376.177c0 15.341-15.648 42.433-28.939 50.086L540.295 937.963c-3.607 2.12-13.889 5.769-28.906 5.769-15.013 0-25.271-3.577-28.917-5.713l-325.83-188.104c-13.275-7.683-28.924-34.774-28.924-50.116V323.567c0-15.323 15.632-42.43 28.924-50.1l325.74-188.12a65.412 65.412 0 0 1 28.991-5.677m0-79.017c-24.808 0-49.605 5.439-68.41 16.262l-325.83 188.137C79.505 226.777 48.7 280.101 48.7 323.567v376.177c0 43.448 30.805 96.793 68.433 118.495l325.756 188.12c18.804 10.846 43.606 16.285 68.41 16.285 24.807 0 49.63-5.462 68.433-16.285l325.774-188.104c37.605-21.719 68.41-75.063 68.41-118.512v-376.16c0-43.465-30.805-96.792-68.41-118.51L579.804 17.01C561.001 6.108 536.212 0.653 511.373 0.653z m0 0" fill="" p-id="1404"></path><path d="M795.337 323.091a39.99 39.99 0 0 0-19.728 5.295L491.303 525.917c-17.928 11.357-23.711 34.821-13.11 53.206 10.605 18.388 33.81 25.139 52.618 15.316l284.291-197.533c15.582-8.903 23.207-27.185 18.565-44.521-4.643-17.337-20.386-29.366-38.33-29.294z m0 0" fill="" p-id="1405"></path><path d="M227.425 323.727c-17.962-0.148-33.759 11.864-38.407 29.223-4.649 17.353 3.025 35.652 18.663 44.499L491.956 595c18.798 9.883 42.042 3.148 52.645-15.253 10.602-18.404 4.77-41.891-13.209-53.195l-284.289-197.53a39.445 39.445 0 0 0-19.678-5.295z m0 0" fill="" p-id="1406"></path><path d="M511.062 521.562a39.521 39.521 0 0 0-39.507 39.511v267.918c0.79 21.248 18.245 38.064 39.504 38.064 21.258 0 38.71-16.816 39.496-38.064V561.073c0-21.815-17.674-39.497-39.493-39.511z m0 0" fill="" p-id="1407"></path></svg>