<?xml version="1.0" standalone="no"?><!DOCTYPE svg PUBLIC "-//W3C//DTD SVG 1.1//EN" "http://www.w3.org/Graphics/SVG/1.1/DTD/svg11.dtd"><svg t="1554567951873" class="icon" style="" viewBox="0 0 1024 1024" version="1.1" xmlns="http://www.w3.org/2000/svg" p-id="1548" xmlns:xlink="http://www.w3.org/1999/xlink" width="200" height="200"><defs><style type="text/css"></style></defs><path d="M512.325632 0c-283.01312 0-512.325632 229.39648-512.325632 512.325632s229.312512 512.326656 512.325632 512.326656c282.9312 0 512.325632-229.397504 512.325632-512.326656S795.256832 0 512.325632 0zM512.325632 939.264c-235.81696 0-426.938368-191.122432-426.938368-426.938368S276.508672 85.387264 512.325632 85.387264c235.734016 0 426.938368 191.122432 426.938368 426.938368S748.059648 939.264 512.325632 939.264z" p-id="1549"></path><path d="M512.325632 426.938368c-74.130432-173.52704-259.414016-134.002688-255.496192 48.780288 1.918976 92.143616 255.746048 292.770816 255.746048 292.770816S771.156992 566.02624 767.73888 474.55232C760.984576 291.43552 586.039296 257.08032 512.325632 426.938368z" p-id="1550"></path></svg>