<?xml version="1.0" standalone="no"?><!DOCTYPE svg PUBLIC "-//W3C//DTD SVG 1.1//EN" "http://www.w3.org/Graphics/SVG/1.1/DTD/svg11.dtd"><svg t="1550485029391" class="icon" style="" viewBox="0 0 1024 1024" version="1.1" xmlns="http://www.w3.org/2000/svg" p-id="8090" xmlns:xlink="http://www.w3.org/1999/xlink" width="200" height="200"><defs><style type="text/css"></style></defs><path d="M772.244691 409.188175c15.569886 0 28.033021 12.463134 28.033021 28.033021 0 15.569886-12.463134 28.033021-28.033021 28.033021-15.569886 0-28.033021-12.463134-28.033021-28.033021C745.765046 420.097933 758.22818 409.188175 772.244691 409.188175L772.244691 409.188175zM270.504198 396.725041c-7.803006-1.553376-15.569886-1.553376-24.926268-1.553376-93.491568 0-169.859874 82.58181-169.859874 183.876385s76.368306 183.876385 169.859874 183.876385l233.728921 0 277.367953 0 59.208918 0c204.106399 0 169.859874-292.93784-105.954703-268.011571 17.123263-45.192408-20.26614-144.897481-115.311084-130.880971C522.945883 228.418542 356.228886 214.402032 270.504198 396.725041L270.504198 396.725041zM948.31807 445.024201c0 10.909758-7.803006 18.712764-18.712764 18.712764s-18.712764-7.803006-18.712764-18.712764c0-81.028434-65.458548-146.486982-146.486982-146.486982-10.909758 0-18.712764-7.803006-18.712764-18.712764s7.803006-18.712764 18.712764-18.712764C865.736259 261.147816 948.31807 343.729627 948.31807 445.024201L948.31807 445.024201zM764.47781 371.762647c-10.909758 0-18.712764-7.803006-18.712764-18.712764s7.803006-18.712764 18.712764-18.712764c60.762295 0 110.614831 49.852537 110.614831 110.614831l0 0c0 10.909758-7.803006 18.712764-18.712764 18.712764s-18.712764-7.803006-18.712764-18.712764C837.703239 404.491921 804.973965 371.762647 764.47781 371.762647L764.47781 371.762647z" p-id="8091"></path></svg>