<?xml version="1.0" standalone="no"?><!DOCTYPE svg PUBLIC "-//W3C//DTD SVG 1.1//EN" "http://www.w3.org/Graphics/SVG/1.1/DTD/svg11.dtd"><svg t="1551767985775" class="icon" style="" viewBox="0 0 1024 1024" version="1.1" xmlns="http://www.w3.org/2000/svg" p-id="4661" xmlns:xlink="http://www.w3.org/1999/xlink" width="200" height="200"><defs><style type="text/css"></style></defs><path d="M703.420498 659.771392l80.295936-138.391552c3.407872-8.503296 3.407872-20.48-3.44064-23.904256l-92.239872-63.207424c0-11.96032 3.44064-23.92064 3.44064-39.288832 0-15.368192 0-27.328512-3.44064-39.288832l83.703808-66.63168c8.536064-8.536064 8.536064-15.368192 3.44064-23.92064l-80.295936-138.360832c-3.407872-3.424256-11.976704-8.552448-23.92064-3.424256l-100.808704 39.288832c-20.48-15.368192-44.40064-27.328512-68.304896-39.288832l-15.384576-102.496256c3.424256-11.96032-8.536064-20.496384-17.072128-20.496384h-160.59392c-6.832128 0-18.792448 8.536064-18.792448 15.368192l-17.088512 107.624448c-23.904256 8.536064-44.40064 23.92064-68.319232 39.288832l-95.66208-39.288832c-11.96032-3.407872-20.496384 0-27.328512 8.536064L1.31285 270.266368c-3.424256 3.424256 0 15.384576 8.536064 23.92064l83.705856 63.209472c0 11.96032-3.407872 23.92064-3.407872 39.288832 0 15.384576 0 27.344896 3.407872 39.303168L9.848914 502.603776c-8.536064 8.536064-8.536064 15.368192-3.407872 23.904256l78.577664 136.671232c3.422208 3.407872 11.96032 8.536064 23.92064 3.407872l100.79232-39.272448c20.496384 15.384576 44.417024 27.328512 68.319232 39.272448l15.384576 102.498304c0 8.566784 8.536064 15.382528 20.496384 15.382528h160.577536c8.552448 0 20.512768-8.536064 20.512768-15.382528l15.368192-102.498304c23.904256-11.943936 47.824896-23.887872 68.337664-39.272448l100.775936 39.272448c6.844416 5.128192 18.788352 1.72032 23.916544-6.815744z m-312.619008-126.414848c-76.87168 0-140.079104-63.207424-140.079104-138.375168 0-75.169792 64.91136-138.377216 140.079104-138.377216 76.873728 0 140.081152 63.207424 140.081152 138.377216 0.002048 75.165696-64.91136 138.375168-140.081152 138.375168z m630.36416 341.665792l-47.839232-32.458752c0-6.815744 1.72032-11.943936 1.72032-20.51072 0-8.538112 0-13.664256-1.72032-20.512768l44.43136-35.866624c3.407872-3.407872 3.407872-8.536064 1.687552-11.943936l-40.992768-71.759872c-1.6896-1.687552-6.817792-3.407872-11.943936-1.687552l-52.967424 20.48c-10.256384-8.536064-22.202368-13.664256-35.866624-20.48l-8.536064-52.967424c1.687552-6.815744-3.44064-10.256384-8.568832-10.256384h-83.70176c-3.407872 0-10.256384 3.44064-10.256384 8.536064l-8.536064 56.375296c-11.943936 3.44064-22.20032 11.943936-35.864576 20.512768l-49.559552-20.512768c-6.815744-1.687552-10.223616 0-15.351808 3.44064l-42.71104 70.039552c-1.72032 1.687552 0 8.505344 3.407872 11.943936l44.43136 32.456704c0 6.817792-1.72032 11.945984-1.72032 20.512768 0 8.536064 0 13.633536 1.72032 20.482048l-44.43136 35.864576c-3.407872 5.128192-3.407872 8.568832 0 11.976704l40.992768 71.759872c1.72032 1.687552 6.848512 3.407872 11.976704 1.687552l52.967424-20.512768c10.223616 8.568832 22.20032 13.697024 35.864576 20.512768l8.536064 52.967424c0 3.407872 3.407872 8.536064 10.256384 8.536064h83.703808c3.407872 0 10.256384-3.407872 10.256384-8.536064l8.536064-52.967424c11.943936-6.815744 25.61024-11.943936 35.866624-20.512768l52.967424 20.512768c3.407872 1.72032 10.256384 0 11.943936-3.407872l41.023488-71.759872c1.685504-3.407872 1.685504-10.256384-1.722368-11.943936z m-203.27424 18.792448c-39.303168 0-73.480192-32.456704-73.480192-71.759872 0-39.274496 34.177024-71.729152 73.480192-71.729152 39.272448 0 73.447424 32.456704 73.447424 71.729152 0.002048 39.303168-34.174976 71.759872-73.447424 71.759872z m0 0" p-id="4662"></path></svg>