<?xml version="1.0" standalone="no"?><!DOCTYPE svg PUBLIC "-//W3C//DTD SVG 1.1//EN" "http://www.w3.org/Graphics/SVG/1.1/DTD/svg11.dtd"><svg t="1550485919810" class="icon" style="" viewBox="0 0 1024 1024" version="1.1" xmlns="http://www.w3.org/2000/svg" p-id="9826" xmlns:xlink="http://www.w3.org/1999/xlink" width="200" height="200"><defs><style type="text/css"></style></defs><path d="M219.429 658.286q0-30.286-21.429-51.715t-51.714-21.428T94.57 606.57t-21.428 51.715T94.57 710t51.715 21.429T198 710t21.429-51.714z m109.714-256q0-30.286-21.429-51.715T256 329.143t-51.714 21.428-21.429 51.715T204.286 454 256 475.429 307.714 454t21.429-51.714z m244.571 274.857l57.715-218.286q3.428-14.857-4.286-27.714t-22-16.857T577.714 418t-17.143 22.571l-57.714 218.286q-34.286 2.857-61.143 24.857t-36 56.286q-11.428 44 11.429 83.429T484 874.286t83.429-11.429T618.286 796q9.143-34.286-3.429-66.857t-41.143-52z m377.143-18.857q0-30.286-21.428-51.715t-51.715-21.428T826 606.57t-21.429 51.715T826 710t51.714 21.429T929.43 710t21.428-51.714zM585.143 292.57q0-30.285-21.429-51.714T512 219.43t-51.714 21.428-21.429 51.714 21.429 51.715T512 365.714t51.714-21.428 21.429-51.715z m256 109.715q0-30.286-21.429-51.715T768 329.143t-51.714 21.428-21.429 51.715T716.286 454 768 475.429 819.714 454t21.429-51.714z m182.857 256q0 149.143-80.571 276-10.858 16.571-30.858 16.571H111.43q-20 0-30.858-16.571Q0 808 0 658.286q0-104 40.571-198.857T149.714 296t163.429-109.143T512 146.286t198.857 40.571T874.286 296t109.143 163.429T1024 658.286z" fill="" p-id="9827"></path></svg>