<?xml version="1.0" standalone="no"?><!DOCTYPE svg PUBLIC "-//W3C//DTD SVG 1.1//EN" "http://www.w3.org/Graphics/SVG/1.1/DTD/svg11.dtd"><svg t="1550484826305" class="icon" style="" viewBox="0 0 1024 1024" version="1.1" xmlns="http://www.w3.org/2000/svg" p-id="5253" xmlns:xlink="http://www.w3.org/1999/xlink" width="200" height="200"><defs><style type="text/css"></style></defs><path d="M597.333333 803.242667V832c0 65.258667-124.224 106.666667-277.333333 106.666667S42.666667 897.258667 42.666667 832V443.434667c0-2.901333 0.576-5.696 1.642666-8.213334C59.434667 377.386667 177.152 341.333333 320 341.333333c37.418667 0 73.109333 2.474667 105.685333 7.168v-160.64c0-4.352 1.301333-8.405333 3.562667-11.797333C447.744 120.106667 563.754667 85.333333 704 85.333333c143.808 0 262.144 36.522667 275.989333 95.04 0.853333 2.346667 1.344 4.864 1.344 7.509334V704c0 65.258667-124.224 106.666667-277.333333 106.666667-37.12 0-73.429333-2.56-106.666667-7.424z m0-43.157334c32.746667 5.162667 69.248 7.914667 106.666667 7.914667 66.645333 0 128.917333-8.768 174.293333-23.893333C918.037333 730.837333 938.666667 714.602667 938.666667 704V251.669333C889.536 281.429333 802.773333 298.666667 704 298.666667c-99.434667 0-186.709333-17.472-235.648-47.573334v105.216c75.946667 17.194667 126.869333 48.384 128.917333 89.130667l0.064 1.664V760.106667z m-42.666666-252.416C505.536 537.429333 418.773333 554.666667 320 554.666667s-185.536-17.237333-234.666667-46.997334V832c0 10.602667 20.608 26.837333 60.373334 40.106667C191.104 887.232 253.376 896 320 896c66.645333 0 128.917333-8.768 174.293333-23.893333C534.037333 858.837333 554.666667 842.602667 554.666667 832V507.669333zM704 256c66.645333 0 128.917333-8.768 174.293333-23.893333C918.037333 218.837333 938.666667 202.602667 938.666667 192c0-10.602667-20.608-26.837333-60.373334-40.106667C832.896 136.768 770.624 128 704 128c-66.645333 0-128.917333 8.768-174.293333 23.893333C489.962667 165.162667 469.333333 181.397333 469.333333 192c0 10.602667 20.608 26.837333 60.373334 40.106667C575.104 247.232 637.376 256 704 256zM320 512c66.645333 0 128.917333-8.768 174.293333-23.893333C534.037333 474.837333 554.666667 458.602667 554.666667 448c0-10.602667-20.608-26.837333-60.373334-40.106667C448.896 392.768 386.624 384 320 384c-66.645333 0-128.917333 8.768-174.293333 23.893333C105.962667 421.162667 85.333333 437.397333 85.333333 448c0 10.602667 20.608 26.837333 60.373334 40.106667C191.104 503.232 253.376 512 320 512z m252.224 158.933333a21.333333 21.333333 0 1 1 8.042667-41.92c37.184 7.146667 79.573333 10.986667 123.733333 10.986667 66.645333 0 128.917333-8.768 174.293333-23.893333C918.037333 602.837333 938.666667 586.602667 938.666667 576a21.333333 21.333333 0 0 1 42.666666 0c0 65.258667-124.224 106.666667-277.333333 106.666667-46.805333 0-91.882667-4.074667-131.776-11.733334z m-0.234667-127.936a21.333333 21.333333 0 0 1 8.021334-41.898666C616.917333 508.16 659.84 512 704 512c66.645333 0 128.917333-8.768 174.293333-23.893333C918.037333 474.837333 938.666667 458.602667 938.666667 448a21.333333 21.333333 0 0 1 42.666666 0c0 65.258667-124.224 106.666667-277.333333 106.666667-46.762667 0-92.373333-4.074667-132.010667-11.669334zM426.666667 320a21.333333 21.333333 0 0 1 42.666666 0c0 10.602667 20.608 26.837333 60.373334 40.106667C575.104 375.232 637.376 384 704 384c66.645333 0 128.917333-8.768 174.293333-23.893333C918.037333 346.837333 938.666667 330.602667 938.666667 320a21.333333 21.333333 0 0 1 42.666666 0c0 65.258667-124.224 106.666667-277.333333 106.666667s-277.333333-41.408-277.333333-106.666667zM42.666667 704a21.333333 21.333333 0 0 1 42.666666 0c0 10.602667 20.608 26.837333 60.373334 40.106667C191.104 759.232 253.376 768 320 768c66.645333 0 128.917333-8.768 174.293333-23.893333C534.037333 730.837333 554.666667 714.602667 554.666667 704a21.333333 21.333333 0 0 1 42.666666 0c0 65.258667-124.224 106.666667-277.333333 106.666667S42.666667 769.258667 42.666667 704z m0-128a21.333333 21.333333 0 0 1 42.666666 0c0 10.602667 20.608 26.837333 60.373334 40.106667C191.104 631.232 253.376 640 320 640c66.645333 0 128.917333-8.768 174.293333-23.893333C534.037333 602.837333 554.666667 586.602667 554.666667 576a21.333333 21.333333 0 0 1 42.666666 0c0 65.258667-124.224 106.666667-277.333333 106.666667S42.666667 641.258667 42.666667 576z" p-id="5254"></path></svg>