<?xml version="1.0" standalone="no"?><!DOCTYPE svg PUBLIC "-//W3C//DTD SVG 1.1//EN" "http://www.w3.org/Graphics/SVG/1.1/DTD/svg11.dtd"><svg t="1555753077062" class="icon" style="" viewBox="0 0 1024 1024" version="1.1" xmlns="http://www.w3.org/2000/svg" p-id="3304" xmlns:xlink="http://www.w3.org/1999/xlink" width="200" height="200"><defs><style type="text/css"></style></defs><path d="M907.053217 699.60596c-64.579416 0-116.973045-51.44818-116.973045-114.89831 0-3.072709 0.682824-5.961581 0.919187-8.981765l-90.868149-7.983791a189.772614 189.772614 0 0 1-80.862148 108.779154l54.363315 122.855839a117.13062 117.13062 0 0 1 33.27455-5.305019c64.579416 0 116.946783 51.44818 116.946783 114.89831s-52.367367 114.89831-116.946783 114.89831c-64.605678 0-116.973045-51.44818-116.973045-114.89831 0-40.207843 21.088764-75.478341 52.918879-95.989331l-53.365341-120.597266a194.946321 194.946321 0 0 1-74.926829 14.864558 192.530174 192.530174 0 0 1-143.130466-63.844066l-151.087995 128.686107c8.377728 15.83627 13.551435 33.563438 13.551435 52.629991 0 63.476392-52.367367 114.89831-116.946782 114.89831S0 888.196763 0 824.720371c0-63.45013 52.367367-114.89831 116.946783-114.898309a117.393245 117.393245 0 0 1 83.829806 35.007873l150.378908-128.029545c-17.989793-28.757406-28.888718-62.268318-28.888717-98.484266 0-48.139109 18.908979-91.577236 49.058295-124.956836L183.732246 209.049268a117.682132 117.682132 0 0 1-66.785463 20.747352C52.367367 229.79662 0 178.374702 0 114.89831S52.367367 0 116.946783 0s116.946783 51.421918 116.946782 114.89831c0 27.050345-9.900952 51.579493-25.816009 71.197558l187.855454 184.572645c32.775564-25.448334 73.639968-41.284604 118.653843-41.284604 24.529148 0 47.771434 4.937345 69.359186 13.157498l39.918955-121.332615c-42.702778-17.123131-72.852094-58.197635-72.852094-106.310482C550.986638 51.421918 603.354005 0 667.959683 0c64.579416 0 116.946783 51.421918 116.946783 114.89831S732.539099 229.79662 667.959683 229.79662c-3.808058 0-7.379754-0.735349-11.109025-1.103024l-42.361366 128.843682c55.256239 33.195763 92.47016 92.496422 92.47016 160.778846 0 5.646431-0.604037 11.109025-1.103024 16.624144l92.47016 8.115104a116.736683 116.736683 0 0 1 108.752892-73.272294c64.579416 0 116.946783 51.44818 116.946782 114.89831s-52.367367 114.924572-116.973045 114.924572z" p-id="3305"></path></svg>