<?xml version="1.0" standalone="no"?><!DOCTYPE svg PUBLIC "-//W3C//DTD SVG 1.1//EN" "http://www.w3.org/Graphics/SVG/1.1/DTD/svg11.dtd"><svg t="1554567989798" class="icon" style="" viewBox="0 0 1024 1024" version="1.1" xmlns="http://www.w3.org/2000/svg" p-id="1981" xmlns:xlink="http://www.w3.org/1999/xlink" width="200" height="200"><defs><style type="text/css"></style></defs><path d="M0 0" p-id="1982"></path><path d="M298.496 680.925867c-91.7504 0-166.4-74.6496-166.4-166.4S206.7456 348.16 298.496 348.16 464.896 422.8096 464.896 514.56s-74.6496 166.365867-166.4 166.365867z m0-298.5984c-72.942933 0-132.266667 59.323733-132.266667 132.266666s59.323733 132.266667 132.266667 132.266667S430.762667 587.537067 430.762667 514.594133s-59.323733-132.266667-132.266667-132.266666zM725.162667 680.925867c-91.7504 0-166.4-74.6496-166.4-166.4s74.6496-166.4 166.4-166.4S891.562667 422.775467 891.562667 514.525867s-74.615467 166.4-166.4 166.4z m0-298.5984c-72.977067 0-132.266667 59.323733-132.266667 132.266666s59.2896 132.266667 132.266667 132.266667S857.429333 587.537067 857.429333 514.594133s-59.2896-132.266667-132.266666-132.266666z" p-id="1983"></path><path d="M512 1019.733333C232.0384 1019.733333 4.266667 791.9616 4.266667 512 4.266667 232.004267 232.0384 4.266667 512 4.266667S1019.733333 232.004267 1019.733333 512c0 279.927467-227.7376 507.733333-507.733333 507.733333z m0-981.2992c-261.154133 0-473.6 212.445867-473.6 473.6S250.845867 985.634133 512 985.634133c261.12 0 473.6-212.514133 473.6-473.6C985.6 250.914133 773.12 38.434133 512 38.434133z" p-id="1984"></path></svg>