<?xml version="1.0" standalone="no"?><!DOCTYPE svg PUBLIC "-//W3C//DTD SVG 1.1//EN" "http://www.w3.org/Graphics/SVG/1.1/DTD/svg11.dtd"><svg t="1556538892716" class="icon" style="" viewBox="0 0 1024 1024" version="1.1" xmlns="http://www.w3.org/2000/svg" p-id="3643" xmlns:xlink="http://www.w3.org/1999/xlink" width="200" height="200"><defs><style type="text/css"></style></defs><path d="M896.3052803 427.59336267H465.08398823c-20.69630173 0-37.49062554 16.79432382-37.49062556 37.49062555l-0.02636472 93.75292941c0 20.69630173 16.76795911 37.49062554 37.49062556 37.51699027h262.51347546c20.69630173 0 37.49062554 16.79432382 37.49062555 37.49062638v18.74531277a112.49824219 112.49824219 0 0 1-112.49824219 112.49824219H296.32344217a37.49062554 37.49062554 0 0 1-37.49062554-37.49062556V371.38378824a112.49824219 112.49824219 0 0 1 112.49824218-112.49824219L896.22618615 258.85918133c20.69630173 0 37.49062554-16.76795911 37.49062557-37.46426165L933.79590585 127.64199027h0.02636472A37.49062554 37.49062554 0 0 0 896.35800973 90.125h-0.02636471L371.38378824 90.15136472C216.06924714 90.15136472 90.15136472 216.06924714 90.15136472 371.38378824v524.94785678c0 20.69630173 16.79432382 37.49062554 37.49062555 37.49062555h553.07900829a253.101272 253.101272 0 0 0 253.10127201-253.10127201v-215.61064563c0-20.69630173-16.79432382-37.49062554-37.49062555-37.49062554z" p-id="3644"></path></svg>