<?xml version="1.0" standalone="no"?><!DOCTYPE svg PUBLIC "-//W3C//DTD SVG 1.1//EN" "http://www.w3.org/Graphics/SVG/1.1/DTD/svg11.dtd"><svg t="1550484925289" class="icon" style="" viewBox="0 0 1152 1024" version="1.1" xmlns="http://www.w3.org/2000/svg" p-id="6016" xmlns:xlink="http://www.w3.org/1999/xlink" width="225" height="200"><defs><style type="text/css"></style></defs><path d="M960 832v32c0 53.02-42.98 96-96 96H96c-53.02 0-96-42.98-96-96V352c0-53.02 42.98-96 96-96h32v416c0 88.224 71.776 160 160 160h672z m192-160V160c0-53.02-42.98-96-96-96H288c-53.02 0-96 42.98-96 96v512c0 53.02 42.98 96 96 96h768c53.02 0 96-42.98 96-96zM512 256c0 53.02-42.98 96-96 96s-96-42.98-96-96 42.98-96 96-96 96 42.98 96 96z m-192 288l111.03-111.03c9.372-9.372 24.568-9.372 33.942 0L544 512l271.03-271.03c9.372-9.372 24.568-9.372 33.942 0L1024 416v224H320v-96z" p-id="6017"></path></svg>