<?xml version="1.0" standalone="no"?><!DOCTYPE svg PUBLIC "-//W3C//DTD SVG 1.1//EN" "http://www.w3.org/Graphics/SVG/1.1/DTD/svg11.dtd"><svg t="1556683914359" class="icon" style="" viewBox="0 0 1024 1024" version="1.1" xmlns="http://www.w3.org/2000/svg" p-id="3375" xmlns:xlink="http://www.w3.org/1999/xlink" width="200" height="200"><defs><style type="text/css"></style></defs><path d="M958.7 663.8c0-2.7-1.1-5.5-3.3-7.6-2.2-2.2-4.9-3.3-7.6-3.3h-16.4c-6.8 0-13.9-5.2-16.1-11.7l-8.5-20.7c-3.3-6-1.9-14.7 3-19.7l11.7-11.7c1.9-1.9 3.3-4.6 3.3-7.6s-1.1-5.7-3.3-7.6l-19.7-19.7c-1.9-1.9-4.6-3-7.6-3s-5.7 1.1-7.6 3l-11.7 11.7c-4.6 4.9-13.6 6-19.7 3l-20.7-8.5c-6.6-1.9-11.7-9.3-11.7-16.1v-16.4c0-2.7-1.1-5.5-3.3-7.6-2.2-2.2-4.9-3.3-7.6-3.3H784c-2.7 0-5.5 1.1-7.6 3.3-2.2 2.2-3.3 4.9-3.3 7.6v16.4c0 6.8-5.2 13.9-11.7 16.1l-20.7 8.5c-6 3.3-14.7 1.9-19.7-3l-11.7-11.7c-1.9-1.9-4.6-3-7.6-3s-5.7 1.1-7.6 3l-19.7 19.7c-1.9 1.9-3 4.6-3.3 7.6 0 3 1.1 5.7 3.3 7.6l11.7 11.7c4.9 4.9 6 13.6 3 19.7l-8.5 20.7c-1.9 6.6-9.3 11.7-16.1 11.7h-16.4c-2.7 0-5.5 1.1-7.6 3.3-2.2 2.2-3.3 4.9-3.3 7.6v27.8c0 2.7 1.1 5.5 3.3 7.6 2.2 2.2 4.9 3 7.6 3h16.4c6.8 0 13.9 5.2 15.8 11.7l8.5 20.7c3.3 6 1.9 14.7-3 19.7L674 766.2c-1.9 1.9-3.3 4.6-3.3 7.6s1.1 5.7 3.3 7.6l19.7 19.7c1.9 1.9 4.6 3 7.6 3s5.7-1.1 7.6-3l11.7-11.7c4.6-4.9 13.6-6 19.7-2.7l20.7 8.5c6.6 1.9 11.7 9.3 11.7 16.1v16.4c0 2.7 1.1 5.5 3.3 7.6 2.2 2.2 4.9 3 7.6 3h27.8c2.7 0 5.5-1.1 7.6-3 2.2-2.2 3.3-4.9 3.3-7.6v-16.4c0-6.8 5.2-13.9 11.7-16.1l20.7-8.5c6-3.3 14.7-1.9 19.7 2.7l11.5 11.7c1.9 1.9 4.6 3.3 7.6 3.3s5.7-1.1 7.6-3l19.7-19.7c1.9-1.9 3.3-4.6 3.3-7.6s-1.1-5.7-3.3-7.6l-11.7-11.7c-4.6-4.6-6-13.6-3-19.7l8.5-20.7c1.9-6.6 9.3-11.7 16.1-11.7h16.4c2.7 0 5.5-1.1 7.6-3.3 2.2-2.2 3.3-4.9 3.3-7.6l0.7-28z m-98.5 13.9c0 34.1-27.6 61.7-61.7 61.7s-61.7-27.6-61.7-61.7 27.6-61.7 61.7-61.7c34.1 0.3 61.7 27.9 61.7 61.7z m0 0" p-id="3376"></path><path d="M828.7 482.2c13.2 2 25.9 5.3 38.1 9.8V228.3c0-32.3-35.2-36.3-37.9-36.5h-0.2v290.4zM828.7 191.8H185.1c-5.9 0.2-35.6 2.9-35.6 36.5h679.1v-36.5zM686.1 442.5c79.1-1.5 72.4-70.9 72.4-70.9 0-71.7-72.4-70.9-72.4-70.9-70.9 6.7-70.1 70.9-70.1 70.9-0.7 72.5 70.1 70.9 70.1 70.9zM186.2 765.6h435c-13.1-26.5-20.6-56.3-20.6-87.9 0-49.5 18.2-94.8 48.2-129.5L616 514.9 508.5 623 362.3 442.5l-144 215.7-32.1 0.7-0.8-430.5h-35.8V729s1.5 36.6 36.6 36.6z" p-id="3377"></path></svg>