<?xml version="1.0" standalone="no"?><!DOCTYPE svg PUBLIC "-//W3C//DTD SVG 1.1//EN" "http://www.w3.org/Graphics/SVG/1.1/DTD/svg11.dtd"><svg t="1554567073713" class="icon" style="" viewBox="0 0 1024 1024" version="1.1" xmlns="http://www.w3.org/2000/svg" p-id="2876" xmlns:xlink="http://www.w3.org/1999/xlink" width="200" height="200"><defs><style type="text/css"></style></defs><path d="M512 1024C229.249024 1024 0 794.775552 0 512 0 229.2224 229.249024 0 512 0c282.775552 0 512 229.2224 512 512 0 282.775552-229.224448 512-512 512z m108.222464-273.11104c128.333824 0 232.443904-114.444288 232.443904-255.555584 0-141.221888-104.11008-255.666176-232.443904-255.666176h-155.056128v511.22176h155.056128z m-418.582528 0c102.721536 0 185.99936-80.775168 185.99936-180.443136V239.665152h-61.97248v330.778624c0 66.443264-55.5008 120.332288-124.000256 120.332288H170.665984v60.112896H201.66656h-0.026624z" p-id="2877"></path><path d="M620.222464 299.88864h-93.057024v390.887424h92.99968c94.164992 0 170.500096-87.554048 170.500096-195.442688 0-107.999232-76.333056-195.444736-170.500096-195.444736h0.057344z" p-id="2878"></path></svg>