<?xml version="1.0" standalone="no"?><!DOCTYPE svg PUBLIC "-//W3C//DTD SVG 1.1//EN" "http://www.w3.org/Graphics/SVG/1.1/DTD/svg11.dtd"><svg t="1556811902953" class="icon" style="" viewBox="0 0 1025 1024" version="1.1" xmlns="http://www.w3.org/2000/svg" p-id="4783" xmlns:xlink="http://www.w3.org/1999/xlink" width="200.1953125" height="200"><defs><style type="text/css"></style></defs><path d="M96.256 636.032l192 0c17.664 0 32-14.336 32-32s-14.336-32-32-32l-192 0c-17.664 0-32 14.336-32 32S78.592 636.032 96.256 636.032zM1015.04 903.424l-110.208-110.208c34.112-43.52 55.36-97.6 55.36-157.248 0-141.376-114.624-256-256-256s-256 114.624-256 256 114.624 256 256 256c59.648 0 113.728-21.248 157.248-55.36l110.208 110.208c12.032 11.968 31.36 11.968 43.392 0C1027.008 934.784 1027.008 915.456 1015.04 903.424zM841.408 770.048c-0.576 0.512-1.344 0.704-1.856 1.28s-0.768 1.344-1.28 1.856c-34.624 33.792-81.792 54.784-134.08 54.784-106.048 0-192-85.952-192-192s85.952-192 192-192 192 85.952 192 192C896.256 688.256 875.264 735.424 841.408 770.048zM96.256 252.032l576 0c17.664 0 32-14.336 32-32s-14.336-32-32-32l-576 0c-17.664 0-32 14.336-32 32S78.592 252.032 96.256 252.032zM352.256 380.032l-256 0c-17.664 0-32 14.336-32 32s14.336 32 32 32l256 0c17.664 0 32-14.336 32-32S369.92 380.032 352.256 380.032zM352.256 764.032l-256 0c-17.664 0-32 14.336-32 32s14.336 32 32 32l256 0c17.664 0 32-14.336 32-32S369.92 764.032 352.256 764.032z" p-id="4784"></path></svg>