<?xml version="1.0" standalone="no"?><!DOCTYPE svg PUBLIC "-//W3C//DTD SVG 1.1//EN" "http://www.w3.org/Graphics/SVG/1.1/DTD/svg11.dtd"><svg t="1551625809654" class="icon" style="" viewBox="0 0 1024 1024" version="1.1" xmlns="http://www.w3.org/2000/svg" p-id="589" xmlns:xlink="http://www.w3.org/1999/xlink" width="200" height="200"><defs><style type="text/css"></style></defs><path d="M917.333333 938.666667h-768c-25.6 0-42.666667-17.066667-42.666666-42.666667V128c0-25.6 17.066667-42.666667 42.666666-42.666667h768c25.6 0 42.666667 17.066667 42.666667 42.666667v768c0 25.6-17.066667 42.666667-42.666667 42.666667z m-640-213.333334c-25.6 0-42.666667 17.066667-42.666666 42.666667s17.066667 42.666667 42.666666 42.666667 42.666667-17.066667 42.666667-42.666667-17.066667-42.666667-42.666667-42.666667z m379.733334-477.866666c-4.266667-12.8-12.8-29.866667-21.333334-38.4-12.8-12.8-25.6-21.333333-38.4-25.6-17.066667-8.533333-38.4-12.8-55.466666-12.8-21.333333 0-46.933333 4.266667-64 12.8-17.066667 8.533333-29.866667 21.333333-42.666667 34.133333-8.533333 12.8-17.066667 25.6-21.333333 42.666667-8.533333 12.8-8.533333 25.6-8.533334 38.4 0 8.533333 4.266667 21.333333 8.533334 25.6 4.266667 4.266667 12.8 8.533333 21.333333 8.533333s17.066667 0 21.333333-8.533333c8.533333-4.266667 12.8-8.533333 12.8-17.066667s0-12.8 4.266667-21.333333 8.533333-17.066667 12.8-21.333334c4.266667-8.533333 12.8-12.8 21.333333-17.066666 8.533333-4.266667 17.066667-8.533333 25.6-8.533334 17.066667 0 34.133333 4.266667 46.933334 17.066667 12.8 4.266667 17.066667 21.333333 17.066666 34.133333 0 8.533333-4.266667 17.066667-8.533333 21.333334-4.266667 8.533333-8.533333 12.8-17.066667 17.066666-8.533333 4.266667-12.8 12.8-21.333333 17.066667-8.533333 4.266667-12.8 12.8-21.333333 17.066667-8.533333 4.266667-12.8 12.8-17.066667 21.333333-4.266667 8.533333-8.533333 17.066667-8.533333 25.6v25.6c0 8.533333 4.266667 12.8 8.533333 21.333333 8.533333 4.266667 17.066667 8.533333 25.6 8.533334 8.533333 0 17.066667-4.266667 25.6-8.533334 4.266667-4.266667 8.533333-12.8 8.533333-21.333333v-12.8c0-8.533333 4.266667-17.066667 12.8-21.333333 8.533333-8.533333 17.066667-17.066667 29.866667-25.6 12.8-8.533333 21.333333-21.333333 29.866667-34.133334 8.533333-12.8 12.8-25.6 17.066666-42.666666 0-21.333333 0-38.4-4.266666-51.2z m-166.4 328.533333c0 34.133333 29.866667 64 64 64s64-29.866667 64-64S588.8 512 554.666667 512s-64 29.866667-64 64z m298.666666 149.333333h-384c-25.6 0-42.666667 17.066667-42.666666 42.666667s17.066667 42.666667 42.666666 42.666667h384c25.6 0 42.666667-17.066667 42.666667-42.666667s-17.066667-42.666667-42.666667-42.666667z" p-id="590"></path></svg>