<?xml version="1.0" standalone="no"?><!DOCTYPE svg PUBLIC "-//W3C//DTD SVG 1.1//EN" "http://www.w3.org/Graphics/SVG/1.1/DTD/svg11.dtd"><svg t="1552067667831" class="icon" style="" viewBox="0 0 1024 1024" version="1.1" xmlns="http://www.w3.org/2000/svg" p-id="3684" xmlns:xlink="http://www.w3.org/1999/xlink" width="200" height="200"><defs><style type="text/css"></style></defs><path d="M224 423.84V231.744l192-0.096 0.096 192.096L224 423.84z m192.096-256.096H223.904A64 64 0 0 0 160 231.68v192.192a64 64 0 0 0 63.904 63.904h192.192A64 64 0 0 0 480 423.84V231.68a64 64 0 0 0-63.904-63.904zM224 807.84V615.744l192-0.096 0.096 192.096L224 807.84z m192.096-256.096H223.904A64 64 0 0 0 160 615.68v192.192a64 64 0 0 0 63.904 63.904h192.192A64 64 0 0 0 480 807.84V615.68a64 64 0 0 0-63.904-63.904z m287.968-88.128l-135.84-135.84 135.712-135.84L839.84 327.68 704.064 463.616z m181.024-181.024L749.184 146.688a64 64 0 0 0-90.368 0L522.912 282.56a63.456 63.456 0 0 0-18.656 45.056 63.456 63.456 0 0 0 18.656 45.312l135.904 135.936a63.904 63.904 0 0 0 90.368-0.032l135.904-135.904a63.936 63.936 0 0 0 0-90.368zM608 807.84V615.744l192-0.096 0.096 192.096L608 807.84z m192.096-256.096H607.904A64 64 0 0 0 544 615.68v192.192a64 64 0 0 0 63.904 63.904h192.192A64 64 0 0 0 864 807.84V615.68a64 64 0 0 0-63.904-63.904z" fill="" p-id="3685"></path></svg>