<?xml version="1.0" standalone="no"?><!DOCTYPE svg PUBLIC "-//W3C//DTD SVG 1.1//EN" "http://www.w3.org/Graphics/SVG/1.1/DTD/svg11.dtd"><svg t="1554568223339" class="icon" style="" viewBox="0 0 1024 1024" version="1.1" xmlns="http://www.w3.org/2000/svg" p-id="4472" xmlns:xlink="http://www.w3.org/1999/xlink" width="200" height="200"><defs><style type="text/css"></style></defs><path d="M535.1 930c-154.4 0-295.2-84.8-367.9-221-6.1-10.6-3-24.2 9.1-30.3 10.6-6.1 24.2-1.5 30.3 9.1 65.1 121.1 190.8 196.8 328.5 196.8 205.9 0 372.5-166.5 372.5-372.5S741 139.6 535.1 139.6c-137.8 0-263.4 75.7-328.5 196.8-6.1 10.6-19.7 15.1-30.3 9.1-10.6-6.1-15.1-19.7-9.1-30.3 72.7-136.3 213.5-221 367.9-221C766.7 94.2 953 282 953 512.1S766.7 930 535.1 930z" p-id="4473"></path><path d="M697.1 534.8H88.4c-12.1 0-22.7-10.6-22.7-22.7s10.6-22.7 22.7-22.7H697c12.1 0 22.7 10.6 22.7 22.7 0.1 12.1-10.5 22.7-22.6 22.7z" p-id="4474"></path><path d="M500.3 727.1c-6.1 0-12.1-3-16.7-7.6-9.1-9.1-9.1-22.7 0-31.8l181.7-175.6-181.7-175.6c-9.1-9.1-9.1-22.7 0-31.8 9.1-9.1 22.7-9.1 31.8 0L713.7 497c4.5 4.5 7.6 10.6 7.6 16.7s-3 12.1-7.6 16.7L515.4 721c-4.5 3.1-10.6 6.1-15.1 6.1z" p-id="4475"></path></svg>