<?xml version="1.0" standalone="no"?><!DOCTYPE svg PUBLIC "-//W3C//DTD SVG 1.1//EN" "http://www.w3.org/Graphics/SVG/1.1/DTD/svg11.dtd"><svg t="1554568266318" class="icon" style="" viewBox="0 0 1024 1024" version="1.1" xmlns="http://www.w3.org/2000/svg" p-id="5203" xmlns:xlink="http://www.w3.org/1999/xlink" width="200" height="200"><defs><style type="text/css"></style></defs><path d="M191.8 545.7c1 0.1 1.9 0.2 2.9 0.2 11.4 0 21.2-8.4 22.6-20.1l1.3-10.4c2.4-18.9 4.5-36.7 8-54.4 7.8-38.8 19.9-73.5 35.9-103.1 3.7-6.7 7.7-13.5 12-20 7-10.5 4.1-24.7-6.5-31.7-10.5-7-24.7-4.1-31.7 6.5-5.1 7.7-9.8 15.6-14.1 23.5-18.2 33.7-31.8 72.7-40.5 115.9-3.9 19.5-6.3 39-8.6 57.9l-1.2 10.2c-1.5 12.5 7.4 23.9 19.9 25.5z m6.4-291.1c9.6 8.1 24.1 6.9 32.2-2.8 2.4-3 5.1-5.9 7.7-8.8 57.3-63.1 135.8-105.7 221.1-120 21.1-3.6 42.7-5.3 64.2-5.3 65.2 0 129.5 16.2 185.9 46.9 73.8 40.1 137.1 107.1 173.6 183.8 1.6 3.4 3.1 6.7 4.6 10.1 3.8 8.6 12.2 13.7 21 13.7 3 0 6.1-0.6 9.1-1.9 11.5-5 16.9-18.5 11.8-30.1-1.7-3.8-3.4-7.6-5.2-11.5-41.2-86.5-109.7-159.1-193-204.3-63.2-34.3-135-52.5-207.8-52.5-24 0-48.1 2-71.7 5.9-95.4 16-183.3 63.8-247.5 134.5-3 3.3-5.9 6.7-8.8 10.1-8.1 9.7-6.9 24.1 2.8 32.2z m615.4 96.9c10.4-7.2 13-21.4 5.9-31.8-17.7-25.6-38.8-49.4-62.8-70.7-32-28.4-68.8-50.5-109.2-65.7-11.8-4.5-25 1.6-29.5 13.4s1.6 25 13.4 29.5c35.2 13.3 67.1 32.5 94.9 57.1 21.2 18.8 39.9 39.8 55.5 62.5 4.5 6.5 11.6 9.9 18.9 9.9 4.4-0.1 9-1.4 12.9-4.2zM179.5 611.7c-12.3-2.6-24.5 5.2-27.2 17.5-7.2 33.1-15.4 66.7-23.3 99.1l-3.9 16.2c-3 12.2 4.6 24.7 16.9 27.6 1.8 0.4 3.7 0.6 5.4 0.6 10.3 0 19.7-7 22-17.5l3.9-16.2c8-32.8 16.2-66.6 23.5-100.2 2.8-12.2-5-24.4-17.3-27.1z m-45.9-93.8c1.6-13.7 3.1-27.5 5.1-41.2 5.7-40.9 15.1-79.3 28.2-113.9 4.5-11.8-1.6-25-13.4-29.5-11.8-4.4-25 1.6-29.5 13.4-14.2 37.8-24.5 79.4-30.6 123.7-1.9 14.1-3.6 28.2-5.2 42.3-2.4 21.2-5.1 43.1-8.7 64.3-4.7 27.6-10.1 55-14.9 78.3-2.5 12.3 5.4 24.4 17.8 26.9 1.5 0.3 3.1 0.4 4.5 0.4 10.7 0 20.2-7.5 22.5-18.4 4.8-23.6 10.3-51.5 15.1-79.6 4-22.4 6.6-45 9.1-66.7z m199.7-250.2c4.6 0 9.3-1.4 13.4-4.2 23.3-16.8 49-30.1 76.1-39.6 32.4-11.5 66.5-17.2 101.2-17.2h5.1c12.5 0.3 23.1-9.9 23.3-22.5 0.2-12.6-9.9-23-22.5-23.3-41.7-0.7-83.1 6-122.3 19.8-31.3 10.9-60.8 26.3-87.7 45.6-10.2 7.3-12.6 21.7-5.2 31.9 4.4 6.2 11.5 9.5 18.6 9.5z m-43.6 325.7c4.5-20.3 7.5-40.9 10.5-60.8 1-6.2 1.9-12.5 2.9-18.7 1.9-12.5-6.6-24.2-19.1-26.2-12.5-2-24.2 6.6-26.2 19.1-1 6.3-1.9 12.7-2.9 19-3.1 20-5.9 38.9-10 57.7-9.5 43.8-21.2 88.2-32.5 131-3.6 13.6-7.3 27.4-10.8 41.1l-2.4 9.2c-3.7 14.3-7.3 28.5-10.9 42.9-3 12.2 4.5 24.7 16.7 27.7 1.8 0.4 3.7 0.7 5.5 0.7 10.3 0 19.6-6.9 22.2-17.2 3.5-14.3 7.2-28.4 10.8-42.5l2.4-9.2c3.5-13.6 7.1-27.3 10.7-40.9 11.6-43.4 23.3-88.2 33.1-132.9z m478.5-67.1h0.4c12.4 0 22.7-10 22.9-22.4v-3.1c0-59.7-27.3-120.3-76.7-170.6-50.1-51-119.8-80.3-190.9-80.3-33.3 0-65.9 6-96.7 18-63.3 24.6-113.5 71.6-141.1 132.4-5.2 11.5-0.1 25 11.4 30.3 11.5 5.2 25 0.1 30.3-11.4 22.7-49.9 63.9-88.5 116-108.8 25.5-9.9 52.5-15 80.1-15 59 0 116.6 24.3 158.2 66.7 41 41.8 63.6 91 63.6 138.6v2.3c-0.2 12.6 9.9 23 22.5 23.3z m-114.1 33c-1.9 8.7-3.9 17.3-6 25.9-3.1 12.3 4.5 24.7 16.7 27.7 1.8 0.4 3.7 0.7 5.5 0.7 10.3 0 19.6-6.9 22.4-17.3 2.2-9 4.3-18 6.3-27l0.8-3.4c3.8-17.4 8.2-37.1 8.2-56.9 0-2-0.1-4-0.2-6-1.3-28.8-12.6-58.3-32.5-85.5-36.8-50.1-91.9-78.8-151.2-78.8-27.7 0-55.5 6.4-80.1 18.5-51.7 25.1-85.7 71.8-98.5 135.1-1.9 9.5-3.3 19.1-4.8 28.8-1.8 12.5 6.7 24.1 19.2 26 12.4 1.8 24.1-6.7 26-19.2 1.4-9.1 2.7-18 4.5-26.5 6.8-33.9 25.2-79.4 73.7-103 18.5-9 39.3-13.8 60-13.8 44.5 0 86.2 22 114.2 60.2 10.2 13.9 22.6 35.6 23.7 60.4 0.1 1.3 0.1 2.7 0.1 4 0 14.9-3.7 31.2-7.2 47.1l-0.8 3z m154.7 169.2c-12.2-2.9-24.6 4.7-27.5 17.1-9.2 39.2-18.1 77.5-26.2 116.6-2.5 12.3 5.4 24.5 17.8 27 1.6 0.3 3.1 0.5 4.7 0.5 10.6 0 20.1-7.4 22.3-18.3 8-38.5 16.9-76.6 26-115.5 2.8-12.2-4.8-24.5-17.1-27.4z m67-241.1c0-7.8-0.4-15.5-1-22.8-1-11.6-3-23.4-5.7-35.1-2.9-12.3-15.1-20-27.5-17.1-12.3 2.9-19.9 15.1-17.1 27.5 2.2 9.7 3.8 19.5 4.7 29.1 0.6 5.9 0.9 12.2 0.9 18.5 0 23.9-3.9 48.4-8 71.5-3.8 22.4-8.8 47-15.5 77.2-2.7 12.3 5.1 24.6 17.4 27.3 1.7 0.3 3.2 0.5 4.9 0.5 10.6 0 20-7.3 22.3-18 6.8-31 11.9-56.2 15.9-79.3 4.4-25 8.7-51.8 8.7-79.3zM758 675c5.3-20.8 10.9-42.3 15.9-63.9 2.9-12.3-4.7-24.6-17.1-27.5-12.4-3-24.6 4.7-27.5 17.1-4.8 20.9-10.3 42.3-15.7 62.8l-2.9 11c-3.7 14.3-7.4 28.7-11.2 43-11.4 43.1-23 87.7-32.8 132.2-3.9 18-7.2 36.1-10 55.4-1.7 12.5 6.9 24.1 19.4 25.9 1.1 0.2 2.3 0.3 3.3 0.3 11.2 0 21-8.2 22.6-19.6 2.6-18.1 5.7-35.2 9.4-52 9.6-43.6 21.2-87.7 32.4-130.3 3.8-14.4 7.6-28.9 11.3-43.3L758 675z m179.1-216.4c-12.7 0-22.9 10.1-23 22.7-0.2 31.8-5.8 64.2-11.1 95.6-10.1 59.3-23 119.4-35.4 177.5l-6.1 28.5c-2.6 12.3 5.2 24.5 17.6 27.1 1.7 0.3 3.2 0.5 4.8 0.5 10.6 0 20.1-7.4 22.4-18.2l6.1-28.4c12.5-58.5 25.5-119.1 35.8-179.3 5.4-31.7 11.5-67.5 11.7-103 0-12.6-10.2-23-22.8-23zM661.6 706c3.6-12.1-3.3-24.8-15.4-28.4-12.1-3.6-24.8 3.3-28.4 15.4l-1.7 5.6c-12.5 41.9-25.5 85.2-35.7 128.9-6.9 29.1-11.3 61.2-13.6 98-0.8 12.6 8.8 23.4 21.4 24.2 0.5 0.1 1 0.1 1.5 0.1 12 0 22-9.3 22.7-21.6 2.2-34.2 6.3-63.8 12.5-90.4 9.9-42.3 22.7-84.9 35-126.1l1.7-5.7z m-301.4-65.1c3.4-12.2-3.7-24.8-15.8-28.2-12.2-3.5-24.8 3.7-28.2 15.8-6.5 23.2-13.3 46.3-20.1 69.4-5.5 18.8-11.1 37.5-16.4 56.3l-0.4 1.6c-9.3 32.3-18.8 65.7-25.1 99.7-2.4 12.4 5.9 24.4 18.3 26.7 1.4 0.3 2.8 0.3 4.2 0.3 10.8 0 20.5-7.7 22.5-18.6 5.9-31.9 15.1-64.3 24.1-95.6l0.4-1.6c5.2-18.6 10.8-37.3 16.3-55.9 6.8-23.1 13.6-46.5 20.2-69.9z m148.7 40.4l4.6-12.2C529.2 628 547 581.4 547 534.2c0-12.7-10.3-22.9-22.9-22.9-12.7 0-22.9 10.3-22.9 22.9 0 38.8-15.6 79.3-30.5 118.5l-4.7 12.4c-4.4 11.6-8.9 23.2-13.6 34.8-14.3 36.2-29.1 73.7-38.5 112.8-8.5 35.4-8.7 71.6-9 106.6l-0.1 8.4c-0.1 12.7 10.1 23 22.7 23.1h0.2c12.5 0 22.7-10.1 23.2-22.8l0.1-8.4c0.2-32.5 0.4-66 7.7-96.4 8.5-35.9 22.7-71.7 36.5-106.5 4.5-11.8 9.2-23.6 13.7-35.4z m59-12.1c9.6 0 18.5-6 22-15.7 8.1-24.8 14.4-44.9 19.7-63.4 0.8-2.9 1.7-5.9 2.5-8.8 5.2-17.8 11.1-37.9 11.1-58.5 0-16.3-3.8-31-11.3-43.7-18.7-31.8-52.6-51.4-88.4-51.4-12.4 0-24.7 2.4-36.2 7-24 9.6-42.5 27.7-52.3 51-5.8 13.6-8 27.6-10.1 40-0.8 4.5-1.5 8.9-2.4 13.3-5 24.8-12.2 48.7-18.6 68.9-3.8 12 2.8 24.8 14.9 28.7 12 3.8 24.8-2.8 28.7-14.9 6.7-21.3 14.4-46.7 19.9-73.7 1-5 1.8-10.1 2.6-15 1.7-10.8 3.4-21 7.1-29.7 5.1-11.9 14.7-21.3 27.2-26.2 6.1-2.4 12.6-3.7 19.2-3.7 19.7 0 38.5 11.1 49 29 3.3 5.7 4.9 12.3 4.9 20.5 0 14-4.7 30.1-9.3 45.6-1 3.1-1.8 6.2-2.7 9.3-5.1 17.8-11.2 37.4-19.2 61.5-3.9 12.1 2.5 25 14.5 29 2.4 0.5 4.8 0.9 7.2 0.9z m-165.5 14.4c-12-4.2-25 2.2-29.1 14.1-14.4 41.6-29.3 86.1-37.8 132.4-3.6 19.4-5.7 40.2-6.7 65.3-0.5 12.6 9.4 23.3 22 23.8h1c12.2 0 22.3-9.6 22.7-21.9 1-22.9 2.9-41.6 6-58.9 8-43 22.1-85.6 36-125.6 4.1-12-2.2-25.1-14.1-29.2z m142.2 31.2c-12-3.8-24.9 2.7-28.9 14.7-6.4 19.4-11.6 36.5-16.1 52.3-5.9 21-13.1 49.1-15.7 79.1-2 23.8-2.6 47.8-2.9 68.1-0.2 12.6 10 23 22.6 23.2h0.3c12.5 0 22.7-10.1 22.9-22.5 0.3-19.5 0.8-42.4 2.7-64.8 1.7-20.5 6-42.2 14.1-70.5 4.3-15.2 9.4-31.8 15.6-50.6 3.9-12.2-2.6-25.1-14.6-29z" p-id="5204"></path></svg>