<?xml version="1.0" standalone="no"?><!DOCTYPE svg PUBLIC "-//W3C//DTD SVG 1.1//EN" "http://www.w3.org/Graphics/SVG/1.1/DTD/svg11.dtd"><svg t="1555756329926" class="icon" style="" viewBox="0 0 1024 1024" version="1.1" xmlns="http://www.w3.org/2000/svg" p-id="1128" xmlns:xlink="http://www.w3.org/1999/xlink" width="200" height="200"><defs><style type="text/css"></style></defs><path d="M685.541053 603.621053c31.797895 0 57.128421 25.869474 57.128421 57.128421 0 12.395789-3.772632 23.713684-10.778948 32.875789h0.538948c31.797895-53.355789 50.122105-115.873684 50.122105-182.16421 0-196.715789-158.989474-355.705263-355.705263-355.705264s-355.705263 158.989474-355.705263 355.705264c0 64.134737 17.246316 124.496842 46.888421 176.235789h0.538947c-4.311579-8.084211-7.006316-17.246316-7.006316-26.947368 0-31.797895 25.869474-57.128421 57.128421-57.128421 21.018947 0 38.804211 11.317895 49.044211 28.025263-19.941053-35.031579-31.797895-75.991579-31.797895-119.646316 0-133.12 107.789474-240.909474 240.909474-240.909474S668.294737 378.88 668.294737 512c0 44.193684-11.856842 85.153684-32.336842 120.724211 10.24-17.246316 28.564211-29.103158 49.583158-29.103158z" fill="#707070" p-id="1129"></path><path d="M219.890526 633.802105c-0.538947-1.077895-1.077895-1.616842-1.616842-2.155789 0.538947 0.538947 0.538947 1.616842 1.616842 2.155789z" fill="#28B75A" p-id="1130"></path><path d="M743.208421 661.288421c0-31.797895-25.869474-57.128421-57.128421-57.128421-21.557895 0-39.882105 11.856842-49.583158 29.103158-41.498947 71.68-119.107368 120.185263-208.572631 120.185263-88.387368 0-165.456842-47.966316-207.494737-119.107368h-0.538948c-9.701053-17.785263-28.564211-30.181053-50.122105-30.181053-31.797895 0-57.128421 25.869474-57.128421 57.128421 0 11.856842 3.772632 23.174737 10.24 32.336842C183.781053 797.642105 297.498947 867.705263 427.385263 867.705263s243.065263-69.524211 305.583158-173.541052h-0.538947c6.467368-9.162105 10.778947-20.48 10.778947-32.87579zM158.989474 717.338947c3.233684 0.538947 6.467368 1.077895 10.24 1.077895-3.233684 0-7.006316-0.538947-10.24-1.077895z m-18.324211-7.006315c1.077895 0.538947 2.694737 1.616842 3.772632 2.155789-1.616842-0.538947-2.694737-1.077895-3.772632-2.155789z m7.545263 4.311579c2.694737 1.077895 5.389474 2.155789 8.623158 2.694736-3.233684-1.077895-5.928421-1.616842-8.623158-2.694736z m77.608421-63.056843c0.538947 3.233684 1.077895 6.467368 1.077895 9.701053 0-3.233684-0.538947-6.467368-1.077895-9.701053z m-2.155789-7.006315c0.538947 1.077895 0.538947 2.155789 1.077895 3.233684 0-1.077895-0.538947-2.155789-1.077895-3.233684z m405.827368 7.006315c-0.538947 3.233684-1.077895 6.467368-1.077894 9.701053 0-3.233684 0-6.467368 1.077894-9.701053z m1.616842-8.08421c-0.538947 1.616842-1.077895 2.694737-1.077894 4.311579 0.538947-1.616842 1.077895-3.233684 1.077894-4.311579z m64.673685 73.835789c-3.233684 0.538947-7.006316 1.077895-10.24 1.077895 3.772632 0 7.006316-0.538947 10.24-1.077895z m29.103158-14.551579c-2.155789 1.616842-4.311579 3.772632-6.467369 5.389474 2.155789-1.616842 4.311579-3.233684 6.467369-5.389474z m-8.623158 7.006316c-2.155789 1.077895-4.311579 2.694737-6.467369 3.772632 2.155789-1.616842 4.311579-2.694737 6.467369-3.772632z m-9.162106 4.311579c-2.694737 1.077895-5.928421 2.155789-9.162105 2.694737 3.233684-0.538947 6.467368-1.077895 9.162105-2.694737z m20.48-14.012631c1.616842-2.155789 3.772632-3.772632 4.850527-5.928421-1.616842 2.155789-3.233684 4.311579-4.850527 5.928421z" fill="#606060" p-id="1131"></path><path d="M688.235789 655.898947m-57.128421 0a57.128421 57.128421 0 1 0 114.256843 0 57.128421 57.128421 0 1 0-114.256843 0Z" fill="#3F3F3F" p-id="1132"></path><path d="M685.541053 661.288421m-57.128421 0a57.128421 57.128421 0 1 0 114.256842 0 57.128421 57.128421 0 1 0-114.256842 0Z" fill="#606060" p-id="1133"></path><path d="M165.456842 655.898947m-57.128421 0a57.128421 57.128421 0 1 0 114.256842 0 57.128421 57.128421 0 1 0-114.256842 0Z" fill="#3F3F3F" p-id="1134"></path><path d="M168.151579 661.288421m-57.128421 0a57.128421 57.128421 0 1 0 114.256842 0 57.128421 57.128421 0 1 0-114.256842 0Z" fill="#606060" p-id="1135"></path><path d="M169.229474 661.288421m-57.128421 0a57.128421 57.128421 0 1 0 114.256842 0 57.128421 57.128421 0 1 0-114.256842 0Z" fill="#606060" p-id="1136"></path><path d="M891.957895 810.576842m-57.128421 0a57.128421 57.128421 0 1 0 114.256842 0 57.128421 57.128421 0 1 0-114.256842 0Z" fill="#606060" p-id="1137"></path></svg>