<?xml version="1.0" standalone="no"?><!DOCTYPE svg PUBLIC "-//W3C//DTD SVG 1.1//EN" "http://www.w3.org/Graphics/SVG/1.1/DTD/svg11.dtd"><svg t="1554567866580" class="icon" style="" viewBox="0 0 1024 1024" version="1.1" xmlns="http://www.w3.org/2000/svg" p-id="7373" xmlns:xlink="http://www.w3.org/1999/xlink" width="200" height="200"><defs><style type="text/css"></style></defs><path d="M766.106999 1024l-254.104951-146.707429-254.102904 146.707429-252.82708-145.972244-0.00512-291.939368 254.103927-146.707429 0-293.412811 252.828104-145.968148 252.829128 145.965076 0 293.414859 254.103927 146.706405-0.002048 291.940392L766.106999 1024zM69.186809 841.011464l188.711311 108.954928 189.988159-109.690114-188.714383-108.953904 0-217.908832-189.990207 109.691137L69.186809 841.011464zM576.115769 840.275255l189.990207 109.690114 188.709263-108.956976 0.002048-217.907808-189.988159-109.68909 0 217.908832L576.115769 840.275255zM323.286641 694.305059l188.715407 108.953904 188.713359-108.954928 0-217.908832-188.714383-108.953904-188.714383 108.954928L323.286641 694.305059zM323.285617 182.98444l0 219.379203 188.715407-108.954928 188.713359 108.953904 0-219.380227-188.714383-108.949808L323.285617 182.98444z" p-id="7374"></path></svg>