<?xml version="1.0" standalone="no"?><!DOCTYPE svg PUBLIC "-//W3C//DTD SVG 1.1//EN" "http://www.w3.org/Graphics/SVG/1.1/DTD/svg11.dtd"><svg t="1554567780115" class="icon" style="" viewBox="0 0 1024 1024" version="1.1" xmlns="http://www.w3.org/2000/svg" p-id="4902" xmlns:xlink="http://www.w3.org/1999/xlink" width="200" height="200"><defs><style type="text/css"></style></defs><path d="M509.7 74.8C270.4 74.8 75 270.1 75 511.5s195.3 436.8 436.8 436.8c57.1 0 112-11 164.6-32.9 65.9-26.3 125.1-70.2 171.2-127.3 61.5-74.6 98.8-171.2 98.8-276.5 0-241.5-195.3-436.8-436.7-436.8z m305 693.6c-41.7 50.5-96.6 90-158 114.2-48.3 15.4-94.4 26.3-144.9 26.3-219.5 0-397.3-177.8-397.3-397.3s177.8-397.3 397.3-397.3 397.3 177.8 397.3 397.3c0 96.5-35.1 186.5-94.4 256.8z" p-id="4903"></path><path d="M503.1 676.2s-158 2.2-245.8-79l-6.6 111.9S773.1 897.9 777.5 595c0 0 11-72.4-177.8-122.9 0 0-74.6-17.6-158-65.8 0 0-46.1-52.7 85.6-41.7 155.8 13.2 237.1 52.7 237.1 52.7v-98.8s-355.6-133.9-493.9 19.8c0 0-46.1 70.2 2.2 114.1 48.3 43.9 144.9 98.8 272.2 131.7-0.1-2.3 164.5 74.5-41.8 92.1z m0 0" p-id="4904"></path></svg>