<?xml version="1.0" standalone="no"?><!DOCTYPE svg PUBLIC "-//W3C//DTD SVG 1.1//EN" "http://www.w3.org/Graphics/SVG/1.1/DTD/svg11.dtd"><svg t="1556538788184" class="icon" style="" viewBox="0 0 1024 1024" version="1.1" xmlns="http://www.w3.org/2000/svg" p-id="3422" xmlns:xlink="http://www.w3.org/1999/xlink" width="200" height="200"><defs><style type="text/css"></style></defs><path d="M278.784 343.552c7.808-0.768 8.832 2.816 12.8 5.376 28.928 18.048-25.728 44.416-38.4 44.8-4.736 0.256-10.624-2.56-12.672-5.248-7.68-9.984 1.28-13.824 6.784-19.456l3.328-4.224c2.176-5.888 21.248-20.736 28.16-21.248z" p-id="3423"></path><path d="M327.296 309.248c3.84-1.536 17.408-5.12 23.04 5.248 5.504 10.368-2.56 74.88-2.56 116.224 0 7.808-2.304 21.504 0 29.056 0.384 1.408 13.696 15.36 15.232 15.872 10.88 2.688 50.816-2.56 53.632-8.064 3.584-6.912 1.28-14.592 2.432-23.808-22.912 0-46.976-8.96-48.512-10.624-1.408-1.536-5.376-4.608 0-10.624 5.504-5.888 31.872-9.088 51.072-7.936-1.28-15.744 3.84-33.664-5.12-34.304-8.832-0.512-37.504-4.864-40.832-7.936-3.328-2.944-6.528-8.704-5.12-15.744 1.408-7.04 4.864-7.04 7.68-7.808 13.696-4.48 30.848 1.92 38.272 5.248 31.488 14.208 38.784 26.368 35.712 68.608-3.456 45.824 6.912 58.368-25.6 76.672-10.112 5.632-11.52 9.216-30.592 7.808-8.064-0.384-29.184-6.784-40.96-2.432-1.28 0.384-3.712 7.936-8.448 8.96-2.944 3.2-0.64 3.072-1.792 4.096-1.152 1.28 0 5.376 0 5.376 8.832 2.56 14.464 1.792 23.04 5.12l30.592 18.56c8.576 11.648 9.856 42.496 2.56 55.424-4.096 7.168-16 11.264-20.48 18.56-1.536 2.56-0.896 7.808-2.432 10.368 3.2 2.432 2.048 5.632 5.12 8.064 4.48 3.2 9.216 0.384 15.232 2.56 7.296 2.56 17.024 9.216 25.6 13.312v2.56c6.528 1.536 13.696-1.664 20.48 0 2.048 0.384 9.856 7.04 12.672 7.936 15.744 4.096 25.088-1.28 30.72 13.056 4.224 11.648 1.792 29.952-7.552 34.56-28.16 12.8-63.36-17.28-79.232-26.496-6.912-3.968-13.696-3.584-20.48-8.064-11.136-7.04-22.784-23.552-48.384-15.744-4.48 1.408-12.928 13.184-18.048 15.744-6.272 3.2-10.752 2.176-17.792 5.376-16.64 7.296-41.6 32.384-73.984 21.12-1.024-0.256-4.608-7.168-5.12-7.68-8.576-11.392-5.76-12.416-2.688-26.496 10.496 0 23.936-1.792 30.72-2.816 24.832-3.584 50.048-10.752 58.624-20.992 8.576-10.368-5.376-24.96-17.792-42.24-2.816-3.84-2.048-7.808-5.248-10.624-8.32-7.424-19.328-9.088-28.16-15.744-1.792-1.536-1.536-2.432-3.328-2.56-10.752-1.408-6.656-20.48 13.696-18.688 11.904 1.152 70.912 53.248 74.112 55.552 2.944 2.304 8.448 1.792 12.672 0 2.816-1.28 4.736-4.992 6.656-6.912 4.48-4.48 11.136-10.624 13.696-16.768 2.688-6.784 0-21.12 0-21.12-2.944-2.048-6.272-11.648-12.8-13.184-13.44-3.584-40.448 4.608-45.952 0-5.504-4.608-1.28-17.664 2.432-23.68l18.048-8.064c-1.152-0.768-0.512-2.56-3.328-6.912-2.688-4.48-1.664-4.352-4.352-6.4-17.792-13.056-47.36 3.456-68.992-5.248-24.704-10.112-20.48-19.328-20.48-52.864 0 0-0.896-14.592 0-15.872s-2.176-26.368 5.248-34.432c7.424-7.808 17.792-4.736 25.472 21.248 15.104 0 35.968 1.536 40.832 2.688 4.864 1.28 6.784 8.448 2.56 13.184-4.352 4.736-12.672 7.296-25.6 10.496-3.072 0.768-11.264 2.304-17.792 2.688-1.408 18.304 0 26.88 4.992 29.184 4.992 2.048 46.592-2.048 51.2-18.56 4.096-15.616 1.024-41.856 0-57.984-1.408-17.536-8.832-78.08-2.688-89.856 1.664-2.048 4.48-3.584 8.192-5.248zM158.464 336.512c7.04-2.176 8.704-3.584 18.176 4.48 9.6 8.064 6.528 50.816 5.12 68.608 2.816 1.408 5.76 7.296 7.68 8.064 6.144 2.048 14.08-1.92 20.608 0 4.096 1.152 10.624 6.4 12.672 10.368 1.92 4.352 2.816 9.472 0 13.312-2.944 3.84-8.448 6.912-12.672 7.808-20.608 4.48-30.08-0.128-35.84 18.56-3.2 9.984-4.352 25.984 0 34.432 1.024 1.92 2.176 3.712 7.552 5.12 5.76 1.536 16.128-3.2 17.92-2.432 1.408 0.512 5.12 5.248 5.12 5.248s0.896 12.8-2.432 18.432c-4.992 8.32-20.096 6.272-23.04 18.56-1.92 7.808 2.304 20.224 2.56 23.808 0.384 8.704-0.64 26.24-0.384 28.16 1.152 11.008 0.384 3.456 0.384 3.456 4.736 19.84-1.024 75.264-7.552 84.608 0 0-6.272 8.32-7.296 9.216l-5.504 3.84c-9.856 3.072-24.96 9.216-40.704 5.248-13.184-3.2-33.664-28.416-25.6-52.736 0.128-1.152 5.12-5.248 5.12-5.248s7.168-0.768 10.24 0c6.912 1.92 16.384 22.016 20.224 23.808 3.968 1.536 7.424 1.024 10.24 0 18.432-6.656 10.752-74.88 12.8-100.48-2.688-1.408-5.76-7.296-7.68-7.936-30.72-10.624-41.6 38.016-73.984 7.936-5.888-5.504-0.64-12.672 2.56-18.56 6.016-11.008 15.744-6.784 29.824-10.624 2.048-0.512 9.856-7.424 11.008-7.808 7.168-3.072 13.568 0.768 20.48-2.432 4.096-2.432 16.768-21.76 17.792-26.496 3.712-20.096-3.584-57.6-17.792-60.8-10.368-2.176-15.104 4.224-20.48 5.248-9.216 1.92-25.856 6.144-35.712 2.688-1.28-0.384-5.248-5.376-5.248-5.376s-0.896-15.488 2.56-20.992l4.992-4.224c1.92-0.768 7.168-3.072 10.24-3.584 13.056-3.072 27.52 2.304 40.832 0 4.48-1.024 11.392-6.528 15.232-8.064-1.92-14.08-6.272-60.672 2.56-68.608 2.304-2.304 0.512-2.56 7.424-4.608zM628.864 532.096c6.016-5.504 21.632-27.008 25.472-34.304 0.768-1.536 5.12-7.936 5.12-7.936 2.048-10.368-3.968-21.888-5.12-28.928-0.384-0.256 3.712-5.248 0-10.624-3.584-5.376-15.232 2.816-22.912 7.936-2.944 1.792-2.304 5.888-4.992 7.808-19.328 13.824-23.04 15.232-43.52 5.248-2.816-4.352-5.632-6.912 0-15.744 5.632-8.96 33.536-23.936 51.072-31.744-0.384-6.528 1.92-17.536 0-23.808-0.384-1.024-6.784-4.48-7.552-5.248-31.872-38.272-18.048-47.488-18.048-47.488s19.072-10.88 30.72-5.248c11.52 5.632 23.68 67.712 38.272 29.056 1.28-3.2 5.888-13.952 5.12-18.56-0.512-3.328-9.6-8.32-10.112-10.496-0.768-2.176 0.256-10.752 0.256-10.752l2.304-4.992c3.328-1.92 10.112-5.376 10.112-5.376s10.368-0.512 15.488 2.688c3.328 2.048 14.848 28.544 15.232 34.432 0.64 8.064-2.304 22.528-4.992 29.056-1.664 3.072-8.832 6.144-10.24 10.624-2.56 6.656 0.128 9.984-2.56 15.744-1.792 3.328-9.344 6.144-10.24 10.624-4.992 24.064 15.104 55.68 17.92 76.672 9.088 74.112-3.328 161.408-46.08 190.208-0.384 0.384-6.528 1.152-7.296 1.664l-15.744-4.352c-2.432-4.096-7.296-7.04-9.984-10.368-3.584-4.736-4.352-11.008-7.808-15.872-2.176-3.2-11.264-7.296-12.672-10.624-12.416-28.288 13.696-27.136 28.16-18.56 3.072 1.792 8.704 10.24 12.8 10.496 5.376 0.512 7.296-3.712 10.24-5.248 21.632-12.032 8.448-23.424 10.112-44.928 0.256-4.096 7.04-14.976 7.68-18.432 2.944-19.328-1.28-36.736-4.992-50.176-0.512 0.64-7.04 1.792-7.808 2.688-3.456 3.328-2.816 11.264-4.992 15.872-4.096 6.912-12.16 12.928-17.92 18.56-8.064 7.296-16.384 21.376-28.032 23.68-4.352 0.768-15.616-2.816-15.36-2.816-0.384-0.256-8.576 3.072-12.928-10.624-4.48-13.44 16.512-16.512 35.712-31.616l10.112-8.192z" p-id="3424"></path><path d="M907.136 326.272c22.016-3.712 32.128 10.88 25.6 28.928-9.728 27.008-57.6 23.424-89.472 29.184-4.352 0.768-16 7.296-20.224 7.936-13.568 1.536-23.168-2.56-35.84 2.56-6.272 2.432-10.368 6.656-15.232 10.624-4.736 3.84-9.472 6.016-12.8 10.496-3.2 4.48-2.432 10.496-2.432 10.496s2.816 25.088 5.12 34.56c1.792 7.168 11.392 19.584 12.8 28.928 6.528 44.8-16.896 179.328-33.152 195.456-14.336 14.08-23.424 13.312-30.592 8.064-7.296-5.376-4.736-4.992-7.808-10.624-3.84-7.68-2.688-16.128-2.432-15.872 2.304-5.248 0-8.576 2.432-13.056 3.584-6.912 14.208-12.288 17.92-18.56 1.024-2.048-0.512-6.016 0-7.936 1.536-7.296 10.624-18.176 12.672-26.368 9.728-38.4 15.744-70.784 12.8-113.792-2.304-34.048-30.848-59.52-20.352-94.848 0.896-3.84 7.04-17.152 10.112-21.12 13.824-18.816 65.28-2.688 94.464-10.624 2.048-0.64 7.808-7.168 10.24-7.936 9.6-3.2 15.616 0.128 25.472-2.688 11.904-3.328 22.4-12.288 33.28-18.432 2.432-1.792 3.584-4.864 7.424-5.376z" p-id="3425"></path><path d="M912.384 405.376s8.32 0 12.8 2.56c15.872 9.344 1.152 28.416-2.688 39.68-2.816 8.448-8.064 21.504-10.24 29.184-1.28 4.48 1.024 8.576 0 13.056-0.512 2.56-3.072 9.728-7.68 10.624-4.48 0.768-8.576-2.432-10.24-5.376-8.832-14.592-7.424-61.824 0-76.544 3.072-5.76 18.048-13.184 18.048-13.184zM835.2 420.736s8.576 1.92 10.88 5.632c2.816 4.992 1.28 10.112 2.56 15.872 4.48 23.168 3.072 56.704-2.56 79.232-2.304 8.576-11.392 20.736-12.8 29.056-0.64 2.816 0.896 7.68 0 10.624-3.328 9.344-13.568 25.728-15.488 36.864-4.352 25.6 6.016 47.872 33.152 39.68 4.096-1.28 6.912-8.32 10.368-10.624-3.072-23.04-19.584-51.968 10.112-36.992 22.016 11.008 26.368 36.224 30.72 66.048-1.536 3.328-3.968 7.168-10.368 7.936-6.4 0.896-7.68-0.896-10.112-2.56-2.048-1.28-1.92-1.792-5.12-7.936-3.328-6.4-6.784-4.352-7.68 0-1.536 0.896-2.56 7.936-2.56 7.936s-20.352 20.992-61.312 5.248c-14.592-9.728-20.864-49.92-12.672-73.984 2.176-6.144 10.112-14.592 12.672-21.248 5.12-13.824 5.12-25.728 10.24-39.68 1.664-4.608 9.088-12.672 10.112-18.432 4.48-26.496-10.624-38.784-12.8-57.984-1.664-15.104 0.128-23.424 7.68-29.184 3.84-3.072 3.328-2.944 10.24-5.12l4.736-0.384zM902.144 508.288c0.384 0.768 6.784 1.92 7.552 2.816 9.344 9.088 8.832 41.344 12.8 57.984 7.552 30.336 25.984 63.488 45.952 81.92 3.2 2.816 5.76 8.832 10.24 10.624 13.184 4.992 25.6 1.92 30.72 15.872 10.88 29.44-31.36 29.184-48.512 18.304-7.552-4.608-29.184-26.88-33.28-34.176-7.296-13.312-7.552-27.392-12.672-42.24-3.072-8.96-12.928-20.608-15.36-29.056-4.352-14.848-7.04-67.584-2.56-79.104l5.12-2.944z" p-id="3426"></path></svg>