<?xml version="1.0" standalone="no"?><!DOCTYPE svg PUBLIC "-//W3C//DTD SVG 1.1//EN" "http://www.w3.org/Graphics/SVG/1.1/DTD/svg11.dtd"><svg t="1554565154694" class="icon" style="" viewBox="0 0 1024 1024" version="1.1" xmlns="http://www.w3.org/2000/svg" p-id="2853" xmlns:xlink="http://www.w3.org/1999/xlink" width="200" height="200"><defs><style type="text/css"></style></defs><path d="M512 0C229.2 0 0 229.2 0 512s229.2 512 512 512 512-229.2 512-512S794.8 0 512 0zM841.1 841c-42.7 42.7-92.5 76.3-147.9 99.7C635.8 965 574.8 977.3 512 977.3S388.2 965 330.9 940.8c-55.4-23.4-105.2-57-147.9-99.7s-76.3-92.5-99.7-147.9C59 635.8 46.7 574.8 46.7 512S59 388.2 83.2 330.9c23.4-55.4 57-105.2 99.7-147.9 42.7-42.7 92.5-76.3 147.9-99.7C388.2 59 449.2 46.7 512 46.7S635.8 59 693.1 83.2c55.4 23.4 105.2 57 147.9 99.7 42.7 42.7 76.3 92.5 99.7 147.9 24.3 57.3 36.5 118.3 36.5 181.1S965 635.8 940.8 693.1C917.4 748.5 883.8 798.3 841.1 841z" p-id="2854"></path><path d="M420 274.6c-25.7 0-46.7 21-46.7 46.7l0 373.6c0 25.7 21 46.7 46.7 46.7s46.7-21 46.7-46.7L466.7 321.3C466.7 295.6 445.7 274.6 420 274.6z" p-id="2855"></path><path d="M605.3 274.6c-25.7 0-46.7 21-46.7 46.7l0 373.6c0 25.7 21 46.7 46.7 46.7s46.7-21 46.7-46.7L652 321.3C652 295.6 631 274.6 605.3 274.6z" p-id="2856"></path></svg>