<?xml version="1.0" standalone="no"?><!DOCTYPE svg PUBLIC "-//W3C//DTD SVG 1.1//EN" "http://www.w3.org/Graphics/SVG/1.1/DTD/svg11.dtd"><svg t="1554568138528" class="icon" style="" viewBox="0 0 1024 1024" version="1.1" xmlns="http://www.w3.org/2000/svg" p-id="2288" xmlns:xlink="http://www.w3.org/1999/xlink" width="200" height="200"><defs><style type="text/css"></style></defs><path d="M992.1536 447.1808l-94.72-94.72V218.4192c0-50.3808-41.3696-91.7504-91.7504-91.7504H671.6416l-94.72-94.72c-35.7376-35.7376-94.0032-35.7376-129.7408 0l-94.72 94.72H218.4192c-50.3808 0-91.7504 41.3696-91.7504 91.7504v133.9392l-94.72 94.72c-35.7376 35.7376-35.7376 94.0032 0 129.7408l94.72 94.72v133.9392c0 50.3808 41.3696 91.7504 91.7504 91.7504h133.9392l94.72 94.72c35.7376 35.7376 94.0032 35.7376 129.7408 0l94.72-94.72h133.9392c50.3808 0 91.7504-41.3696 91.7504-91.7504V671.6416l94.72-94.72c35.84-35.7376 35.84-94.1056 0.2048-129.7408z m-333.4144-48.7424c20.2752 0 36.6592 16.384 36.6592 36.6592 0 20.2752-16.384 36.6592-36.6592 36.6592-20.2752 0-36.6592-16.384-36.6592-36.6592 0-20.2752 16.384-36.6592 36.6592-36.6592z m-293.7856 0c20.2752 0 36.6592 16.384 36.6592 36.6592 0 20.2752-16.384 36.6592-36.6592 36.6592-20.2752 0-36.6592-16.384-36.6592-36.6592 0-20.2752 16.4864-36.6592 36.6592-36.6592zM768.1024 693.248c0 59.8016-48.8448 108.6464-108.6464 108.6464H365.8752c-59.8016 0-108.6464-48.8448-108.6464-108.6464v-3.072c0-59.8016 48.8448-108.6464 108.6464-108.6464h1.2288c9.0112-72.3968 70.656-128.4096 145.6128-128.4096 74.9568 0 136.4992 56.1152 145.6128 128.4096h1.2288c59.8016 0 108.6464 48.8448 108.6464 108.6464v3.072h-0.1024z m0 0" p-id="2289"></path><path d="M602.3168 581.8368H421.376c-16.2816 0-22.6304 21.1968-8.9088 30.208l89.3952 58.368c5.4272 3.584 12.288 3.584 17.7152 0.1024l91.648-58.368c13.824-8.8064 7.5776-30.3104-8.9088-30.3104z m0 0" p-id="2290"></path></svg>