<?xml version="1.0" standalone="no"?><!DOCTYPE svg PUBLIC "-//W3C//DTD SVG 1.1//EN" "http://www.w3.org/Graphics/SVG/1.1/DTD/svg11.dtd"><svg t="1552067524597" class="icon" style="" viewBox="0 0 1024 1024" version="1.1" xmlns="http://www.w3.org/2000/svg" p-id="2825" xmlns:xlink="http://www.w3.org/1999/xlink" width="200" height="200"><defs><style type="text/css"></style></defs><path d="M943.261538 576.984615c0-15.753846-13.784615-29.538462-29.538461-29.538461h-68.923077c-15.753846 0-27.569231 11.815385-27.569231 27.569231 0 3.938462 0 9.846154-1.969231 13.784615-5.907692 25.6-15.753846 49.230769-29.538461 72.861538-55.138462 96.492308-151.630769 149.661538-254.030769 149.661539-78.769231 0-153.6-31.507692-208.738462-86.646154-9.846154-7.876923-17.723077-17.723077-23.630769-27.569231-5.907692-15.753846 7.876923-23.630769 25.6-23.630769h137.846154c15.753846 0 29.538462-13.784615 29.538461-29.538461v-61.046154c0-15.753846-11.815385-27.569231-27.56923-27.569231H104.369231c-13.784615 0-25.6 11.815385-25.6 25.6v358.4c1.969231 15.753846 15.753846 29.538462 31.507692 29.538461h59.076923c15.753846 0 29.538462-13.784615 29.538462-29.538461v-137.846154c0-17.723077 9.846154-25.6 23.630769-13.784615 5.907692 7.876923 11.815385 13.784615 19.692308 19.692307 98.461538 98.461538 236.307692 139.815385 378.092307 112.246154 49.230769-9.846154 96.492308-29.538462 137.846154-57.107692 102.4-66.953846 167.384615-169.353846 185.107692-281.6v-3.938462zM80.738462 447.015385c0 15.753846 13.784615 29.538462 29.538461 29.538461h68.923077c15.753846 0 27.569231-11.815385 27.569231-27.569231 0-3.938462 0-9.846154 1.969231-13.784615 5.907692-25.6 15.753846-49.230769 29.538461-72.861538 55.138462-96.492308 151.630769-149.661538 254.030769-149.661539 78.769231 0 153.6 31.507692 208.738462 86.646154 9.846154 7.876923 17.723077 17.723077 23.630769 27.569231 5.907692 15.753846-7.876923 23.630769-25.6 23.630769h-137.846154c-15.753846 0-29.538462 13.784615-29.538461 29.538461v61.046154c0 15.753846 11.815385 27.569231 27.56923 27.569231h360.369231c13.784615 0 25.6-11.815385 25.6-25.6V84.676923c-1.969231-15.753846-15.753846-29.538462-31.507692-29.538461h-59.076923c-15.753846 0-29.538462 13.784615-29.538462 29.538461v137.846154c0 17.723077-9.846154 25.6-23.630769 13.784615-5.907692-7.876923-11.815385-13.784615-19.692308-19.692307-98.461538-98.461538-236.307692-139.815385-378.092307-112.246154-49.230769 9.846154-96.492308 29.538462-137.846154 57.107692-102.4 66.953846-167.384615 169.353846-185.107692 281.6v3.938462z" p-id="2826"></path></svg>