<?xml version="1.0" standalone="no"?><!DOCTYPE svg PUBLIC "-//W3C//DTD SVG 1.1//EN" "http://www.w3.org/Graphics/SVG/1.1/DTD/svg11.dtd"><svg t="1556619452147" class="icon" style="" viewBox="0 0 1025 1024" version="1.1" xmlns="http://www.w3.org/2000/svg" p-id="2415" xmlns:xlink="http://www.w3.org/1999/xlink" width="200.1953125" height="200"><defs><style type="text/css"></style></defs><path d="M181.312095 6.965171h662.497434c97.630102 0 174.351366 76.62576 174.351366 174.151472v661.771156c0 97.521271-76.71238 174.147031-174.351366 174.14703H181.312095c-97.627881 0-174.351366-76.62576-174.351367-174.14703V181.116643c0-97.523492 76.71238-174.151473 174.351367-174.151472z" fill="#FFFFFF" p-id="2416"></path><path d="M181.312095 13.934783c-90.660489 0-167.363985 76.62576-167.363986 167.18186v661.771156c0 90.556101 76.703496 167.18186 167.363986 167.18186h662.497434c90.651605 0 167.363985-76.62576 167.363985-167.18186V181.116643c0-90.556101-76.714601-167.18186-167.363985-167.18186z m662.497434 1010.065217H181.312095C83.684214 1024 0 940.40907 0 842.887799V181.116643C0 83.593151 83.681993 0 181.312095 0h662.497434c97.630102 0 181.312095 83.59093 181.312094 181.116643v661.771156c0 97.521271-83.681993 181.112201-181.312094 181.112201z" fill="#C2C0BF" p-id="2417"></path><path d="M174.333598 195.049206q0-20.899954 20.924385-20.897733t20.924385 20.897733q0 20.89329-20.924385 20.897732t-20.924385-20.897732z m34.870273 97.525713l69.740547-97.525713 27.90066 34.832515 34.870274-62.695419 62.757607 111.458276v-118.425667H146.4396v167.18186h258.024475v-34.825852z" fill="#C2C0BF" p-id="2418"></path><path d="M690.382548 160.218911h188.28837v27.862903h-188.28837zM690.382548 215.946938h188.28837v27.860682h-188.28837zM690.382548 104.488663h188.28837V132.351566h-188.28837zM432.358073 160.218911h223.160864v27.862903H432.358073zM432.358073 215.946938h223.160864v27.860682H432.358073zM432.358073 104.488663h223.160864V132.351566H432.358073zM146.4396 835.918186h509.079337v27.865124H146.4396zM146.4396 891.648434h509.079337v27.862903H146.4396zM146.4396 780.194601h509.079337v27.862903H146.4396zM690.382548 835.918186h188.28837v27.865124h-188.28837zM690.382548 891.648434h188.28837v27.862903h-188.28837zM690.382548 780.194601h188.28837v27.862903h-188.28837z" fill="#C2C0BF" p-id="2419"></path><path d="M160.396594 132.351566h6.967391v-6.96295h-13.945888v6.965171z m0-13.930341s6.969613 0 6.969612-6.967392h-13.948109v6.967392z m0-13.932562h6.967391s0 6.965171 6.969613 6.96517c0 6.967392 0 6.967392-6.969613 6.967392s0 6.965171 6.969613 6.96517v6.965171c0 6.967392-6.969613 6.967392-6.969613 6.967391h-20.924385V104.488663zM188.28837 146.284128h-13.954772 6.978497v-6.965171l-6.978497-27.865124h6.978497l6.976275 20.897733 6.969613-20.897733h6.969613l-13.939226 34.830295zM223.154202 111.453833v6.967392h-6.969613v13.930341h6.969613v6.967391h-13.94811v-20.895511h-6.971833v-6.969613h6.978496l6.978497-6.96517v6.96517zM264.994087 132.351566h6.980718s6.969613 0 6.969613-6.965171v-6.962949l-6.969613-6.969613h-13.95033v20.897733z m6.980718-27.862903c6.969613 0 6.969613 0 6.969613 6.96517h6.978496v20.897733h-6.978496v6.967391h-27.896219V104.488663zM362.633073 132.351566c-6.978497 0-6.978497-6.965171-6.978496-6.965171s0-6.965171 6.978496-6.96517v6.96517h6.969613c0-6.965171 0-13.932562-6.969613-13.932562-13.956993 0-13.956993 13.932562-13.956993 13.932562s0 13.932562 13.956993 13.932562c6.969613 0 6.969613-6.967392 6.969613-6.967391zM390.527071 118.423446l6.969613 6.96517h-13.94811s0-6.965171 6.978497-6.96517z m6.969613 6.96517h6.969612s0-13.932562-13.937004-13.932562c-13.956993 0-13.956993 13.932562-13.956993 13.932562s0 13.932562 13.956993 13.932562c6.969613 0 6.969613-6.967392 13.937004-6.967391h-13.937004c-6.978497 0-6.978497 0-6.978497-6.965171z" fill="#C2C0BF" p-id="2420"></path><path d="M237.104532 118.423446l6.978497 6.96517h-13.952552s0-6.965171 6.969613-6.96517z m6.978497 6.96517h6.969612s0-13.932562-13.945888-13.932562c-13.948109 0-13.948109 13.932562-13.948109 13.932562s0 13.932562 13.948109 13.932562c6.978497 0 6.978497-6.967392 13.945888-6.967391h-13.948109c-6.969613 0-6.969613 0-6.969613-6.965171zM299.866582 132.351566c-6.978497 0-6.978497-6.965171-6.978497-6.965171s0-6.965171 6.978497-6.96517c6.969613 0 6.969613 6.965171 6.969612 6.96517s0 6.965171-6.969612 6.965171z m13.948109-20.897733h-13.948109c-13.945888 0-13.945888 13.932562-13.945889 13.932562s0 13.932562 13.945889 13.932562h13.948109zM341.715352 118.423446c0-6.967392-6.978497-6.967392-6.978497-6.967392-6.969613 0-6.969613 6.967392-6.969613 6.967392l-6.978496-6.967392v27.865124h6.978496v-13.932562c0-6.965171 6.969613-6.965171 6.969613-6.96517v20.897732h6.978497v-20.897732z" fill="#C2C0BF" p-id="2421"></path><path d="M0 222.912109v619.97569s0 6.965171 6.969613 13.930341l1018.158674-55.725806V181.116643s0-6.962949-6.969613-13.932562z" fill="#8a8a8a" p-id="2422"></path><path d="M913.543412 578.175783v-48.760636L760.125315 536.380318v-20.897733h-69.742767v27.867345l-153.418098 6.96295v48.760635l153.418098-6.96517v104.495326l69.742767-6.969613v-104.488663l153.418097-6.969612z" fill="#FFFFFF" p-id="2423"></path><path d="M536.96445 487.619682V536.380318h48.818383l139.469988-69.658368 132.502596 48.760635h55.787995v-48.760635h-34.872494l-90.651605-27.862903 118.545602-62.693198v-83.59093l-69.736104 6.962949-174.340261 6.965171-55.787995-27.862903-76.705717 118.423446 62.757608 20.897732 41.842106-62.693198 202.234259-6.969612v6.969612l-111.57599 55.723585-90.658269-34.825852-27.893997 48.760636 48.818382 20.897732-83.681992 41.795465h-34.872495zM871.701305 592.108345l-69.742767 6.96517 48.818382 90.560543 76.71238-6.96517-55.787995-90.560543zM536.96445 703.56662h69.736105l48.818382-97.523492-69.736104 6.962949-48.818383 90.560543zM362.630852 599.073515l55.787996 111.458276h83.681992l-62.766492-118.423446-76.703496 6.96517zM285.918472 515.482585l-62.766492-76.623538-83.681992 6.96517 62.757608 69.658368h83.690876zM285.918472 417.961314l-62.766492-69.66281H139.469988l62.757608 76.627981 83.690876-6.965171z" fill="#FFFFFF" p-id="2424"></path><path d="M355.652356 585.145395l132.493712-6.969612v-48.760636L397.494463 536.380318v-215.944717l-69.736105 6.96517V536.380318l-216.182368 13.932562v48.760635l146.448485-6.96517-62.766492 83.595372-83.681993 6.965171v48.760635l139.469988-6.96517 104.606378-139.318958z" fill="#FFFFFF" p-id="2425"></path></svg>