<?xml version="1.0" standalone="no"?><!DOCTYPE svg PUBLIC "-//W3C//DTD SVG 1.1//EN" "http://www.w3.org/Graphics/SVG/1.1/DTD/svg11.dtd"><svg t="1550483965501" class="icon" style="" viewBox="0 0 1280 1024" version="1.1" xmlns="http://www.w3.org/2000/svg" p-id="1906" xmlns:xlink="http://www.w3.org/1999/xlink" width="250" height="200"><defs><style type="text/css"></style></defs><path d="M192 448c70.6 0 128-57.4 128-128s-57.4-128-128-128-128 57.4-128 128 57.4 128 128 128z m896 0c70.6 0 128-57.4 128-128s-57.4-128-128-128-128 57.4-128 128 57.4 128 128 128z m64 64h-128c-35.2 0-67 14.2-90.2 37.2 80.6 44.2 137.8 124 150.2 218.8h132c35.4 0 64-28.6 64-64v-64c0-70.6-57.4-128-128-128z m-512 0c123.8 0 224-100.2 224-224S763.8 64 640 64 416 164.2 416 288s100.2 224 224 224z m153.6 64h-16.6c-41.6 20-87.8 32-137 32s-95.2-12-137-32h-16.6C359.2 576 256 679.2 256 806.4V864c0 53 43 96 96 96h576c53 0 96-43 96-96v-57.6c0-127.2-103.2-230.4-230.4-230.4z m-447.4-26.8C323 526.2 291.2 512 256 512H128c-70.6 0-128 57.4-128 128v64c0 35.4 28.6 64 64 64h131.8c12.6-94.8 69.8-174.6 150.4-218.8z" p-id="1907"></path></svg>