<?xml version="1.0" standalone="no"?><!DOCTYPE svg PUBLIC "-//W3C//DTD SVG 1.1//EN" "http://www.w3.org/Graphics/SVG/1.1/DTD/svg11.dtd"><svg t="1554568194888" class="icon" style="" viewBox="0 0 1024 1024" version="1.1" xmlns="http://www.w3.org/2000/svg" p-id="3734" xmlns:xlink="http://www.w3.org/1999/xlink" width="200" height="200"><defs><style type="text/css"></style></defs><path d="M907.5078125 511.53857447h-0.88989258l-142.31689478-142.31689478 141.82251002-145.48095729V164.64526367l-21.39038112-21.35742187h-270.19775365l-21.75292969 19.94018529v34.44213893L512.49438477 117.38208008V116.4921875L512 116.95361303 511.53857447 116.4921875v0.88989258l-42.51708984 42.55004908-17.73193385-17.76489309H183.56372096l-21.02783254 22.8076177v62.12768504l20.30273463 20.30273463h23.73046875v175.01220703L117.38208008 511.57153295H116.4921875L116.95361303 512 116.4921875 512.46142553h0.88989258l89.18701172 89.18701172v213.14575246l29.89379908 17.23754832h76.53076172l61.20483398-62.753906 137.30712865 137.30712865V907.5078125l0.49438477-0.46142553 0.46142553 0.46142553v-0.92285182l82.72705129-82.69409129h15.98510716c3.65844727 0 6.95434596-2.30712916 8.23974635-5.89965871l4.81201147-14.04052734a8.63525416 8.63525416 0 0 0-1.21948268-7.87719701l48.18603541-48.18603541-20.17089844 64.66552734a8.73413111 8.73413111 0 0 0 8.40454102 11.33789113h60.1171875a8.76708959 8.76708959 0 0 0 8.0090332-5.3723147l5.43823242-12.9858401a8.89892578 8.89892578 0 0 0-8.14086939-12.03002904h-2.47192383l27.68554688-87.14355494h40.60546925l-33.48632863 106.16088917a8.76708959 8.76708959 0 0 0 8.40454102 11.33789038h65.98388697c3.62548803 0 6.82250977-2.17529297 8.17382787-5.60302709l5.40527395-14.10644582a8.76708959 8.76708959 0 0 0-8.20678711-11.7993159h-4.77905299l37.27661133-121.05834987a8.66821264 8.66821264 0 0 0-1.28540039-7.91015625l-12.35961914-16.61132812-0.09887696-0.16479467a8.80004883 8.80004883 0 0 0-6.88842748-3.36181641h-47.32910207a8.76708959 8.76708959 0 0 0-6.26220652 2.66967774l-13.18359401 14.46899363h-20.56640625l-1.38427734-1.51611277 146.50268529-146.50268605H907.5078125L907.04638697 512l0.46142553-0.46142553zM440.74267603 813.21215846l52.04223583-148.61206055h-16.51245118l9.78881836-10.0195315h54.67895508l-51.51489258 150.12817408h20.53344778l-2.60376002 8.50341797H440.74267603z m121.78344702-247.71972682l4.94384765 4.97680689-8.86596654 30.38818309-7.41577148 7.44873072h-31.93725586l-5.96557643-5.96557642 10.25024389-28.70727489 9.4921875-8.14086939h29.49829127zM300.73291041 802.99487305H244.27417017l-8.63525415-4.94384766V218.36840846H194.90161133l-3.29589869-3.29589869V176.31274414l4.71313527-5.07568385h242.94067383l7.02026367 7.05322291v36.51855494l-4.68017604 5.70190405H406.03686549v286.34765625l290.26977514-286.34765625h-68.75244166l-5.76782176-6.19628881V175.98315404l3.9880366-3.65844726h246.86279347l4.35058594 4.38354517v35.26611303L544.26684596 553.19873022h-12.29370143c-0.49438477-0.03295924-0.92285182 0-1.38427734 0.03295923l-0.65917944 0.09887696a8.53637721 8.53637721 0 0 0-3.92211964 1.97753906l-11.30493114 9.72290064-0.13183619 0.09887696a8.99780273 8.99780273 0 0 0-2.40600611 3.65844726l-9.75585912 27.35595678-201.67602514 206.85058594z m486.738281-130.25390651l15.62255859-17.10571289h43.9672849l10.18432618 13.67797877-41.69311499 135.36254883h16.24877955l-2.63671925 6.88842748H770.39843775l37.04589819-117.46582031h-66.41235327l-35.49682617 111.76391627h13.97460887l-2.40600535 5.73486328h-52.89916992l36.4855957-116.93847631h-69.08203176l-35.0024414 110.05004883h14.37011744l-2.37304688 6.88842748H553.85791041l49.89990209-146.99707006h-19.3139651l2.99926783-8.93188502h54.38232422l17.10571289 17.69897461h29.86083985l16.18286107-18.25927709h34.96948293l16.11694336 17.63305613h31.40991186z" fill="" p-id="3735"></path></svg>