<?xml version="1.0" standalone="no"?><!DOCTYPE svg PUBLIC "-//W3C//DTD SVG 1.1//EN" "http://www.w3.org/Graphics/SVG/1.1/DTD/svg11.dtd"><svg t="1554567725684" class="icon" style="" viewBox="0 0 1024 1024" version="1.1" xmlns="http://www.w3.org/2000/svg" p-id="4083" xmlns:xlink="http://www.w3.org/1999/xlink" width="200" height="200"><defs><style type="text/css"></style></defs><path d="M1018.24 502.4C1013.12 231.68 792.32 10.88 521.6 5.76 234.24 0.64 0.64 234.24 5.76 521.6c5.12 270.72 225.92 491.52 496.64 496.64 287.36 5.12 520.96-228.48 515.84-515.84z m-704.81 32.318c39.25 0 103.92-26.011 122.558-48.666 7.313-7.969 2.637-10.01-28.645-12.644-41.951-3.293-56.637-16.663-64.606-58.615-7.376-35.958-5.994-99.245 1.315-113.931 8.036-13.962 30.031-17.32 37.34-5.334 2.702 4.675 4.676 29.307 5.335 55.978 1.319 73.298 5.334 76.658 102.605 73.298 43.334-1.383 90.62-2.698 106.621-3.357 42.611 0 57.297-17.979 51.962-64.606-4.675-41.951-14.027-59.271-37.34-67.962-20.612-8.696-137.904-11.329-184.53-4.02-34.642 4.675-35.298 4.675-35.298-11.985 0-19.953 7.309-25.288 39.973-31.941 35.958-7.308 153.181-5.994 183.212 1.978 56.638 14.686 65.924 24.629 82.652 94.042 9.943 41.292 9.284 59.93-2.701 88.579-13.303 32.664-38.659 40.633-119.925 39.973-65.329-0.659-66.648 0-77.973 17.319-14.03 22.591-70.664 67.24-95.956 76.59-76.59 27.265-119.265 29.967-125.919 8.628-6.647-20.676 7.974-33.324 39.32-33.324z m115.909-195.196c4.675-5.334 30.031-7.969 79.291-7.377 94.569 0.724 89.893-0.659 87.26 20.68l-1.977 17.979-83.309 0.659c-74.615 0-83.308-1.319-85.282-11.988-1.318-6.65 0.657-15.277 4.017-19.953z m41.292 387.695c-40.633 28.648-115.249 60.657-141.264 60.657-42.608 0-39.973-41.951 3.36-53.94 73.957-20.017 149.955-62.628 239.85-133.883 36.021-27.989 39.973-29.372 50.643-16.136 9.287 11.329 7.309 13.367-54.659 66.648-20.68 17.979-37.999 36.616-37.999 41.951 0 4.676-5.335 8.692-11.329 8.692s-27.99 11.325-48.602 26.011z m282.524-90.485c-3.293 41.292-14.622 62.628-48.601 93.254-53.345 47.943-127.96 71.256-153.248 48.602-16.663-15.345-29.967-48.01-24.632-60.654 3.293-9.352 5.994-9.352 24.632 0.659 41.951 21.336 101.946-1.319 136.585-51.303 34.642-50.643 19.956-105.965-27.989-105.965-17.32 0-23.969-3.949-30.622-18.635-12.712-25.951-38-27.265-66.648-2.637-133.229 115.25-257.17 177.881-285.159 144.557-17.979-21.271-4.016-31.94 69.94-53.276 25.356-7.377 67.304-29.308 113.931-60.654 66.648-43.929 73.956-50.579 71.323-65.924-2.701-12.644 0-17.979 11.985-22.655 8.627-3.36 23.313-4.675 32.664-3.293 9.287 0.659 30.627 3.357 47.946 5.335 76.591 8.691 133.887 77.973 127.893 152.589z" p-id="4084"></path></svg>