<?xml version="1.0" standalone="no"?><!DOCTYPE svg PUBLIC "-//W3C//DTD SVG 1.1//EN" "http://www.w3.org/Graphics/SVG/1.1/DTD/svg11.dtd"><svg t="1554567824697" class="icon" style="" viewBox="0 0 1024 1024" version="1.1" xmlns="http://www.w3.org/2000/svg" p-id="5659" xmlns:xlink="http://www.w3.org/1999/xlink" width="200" height="200"><defs><style type="text/css"></style></defs><path d="M758.352314 501.167686c-39.815529-7.720157-20.429804-29.143843-20.429804-29.143843s38.952157-64.271059-7.730196-110.97349c-57.886118-57.856-198.485333 7.368784-198.485333 7.368784-53.709804 16.685176-39.454118-7.629804-31.844392-48.90102 0-48.670118-16.685176-131.021804-159.733961-82.351686-142.898196 48.89098-265.637647 220.230275-265.637647 220.230275C-10.832314 571.271529 0.501961 659.275294 0.501961 659.275294c21.313255 194.278902 227.739608 247.627294 388.306824 260.256627 168.899765 13.231686 396.910431-58.227451 466.010353-205.091137C923.959216 567.356235 798.328471 509.158902 758.352314 501.167686zM401.317647 864.768C233.592471 872.57851 98.04298 788.48 98.04298 676.60298c0-112.057725 135.54949-201.878588 303.274667-209.618824 167.765333-7.750275 303.595922 61.419922 303.595922 173.196549C704.913569 752.057725 569.08298 857.108078 401.317647 864.768zM367.836863 540.762353c-168.638745 19.737098-149.162667 177.724235-149.162667 177.724235s-1.736784 50.035451 45.216627 75.504941c98.675451 53.438745 200.282353 21.102431 251.64298-45.206588C566.884392 682.465882 536.776784 521.185882 367.836863 540.762353zM325.270588 762.508549c-31.442824 3.694431-56.842039-14.486588-56.842039-40.809412 0-26.252549 22.538039-53.709804 54.041098-56.982588 36.181333-3.463529 59.743373 17.377882 59.743373 43.730824C382.21302 734.679843 356.683294 758.91451 325.270588 762.508549zM424.719059 677.827765c-10.671686 7.951059-23.772863 6.856784-29.394824-2.700549-5.89302-9.336471-3.674353-24.304941 7.087686-32.135529 12.488784-9.306353 25.489569-6.605804 31.131608 2.700549C439.215686 655.239529 435.149804 669.585569 424.719059 677.827765zM840.513255 432.780549c13.57302 0 25.158275-10.059294 27.075765-23.190588 0.230902-0.983843 0.371451-1.857255 0.371451-2.951529C888.560941 221.465098 716.197647 253.319529 716.197647 253.319529c-15.309804 0-27.557647 12.388392-27.557647 27.848784 0 15.169255 12.247843 27.527529 27.557647 27.527529 123.813647-27.286588 96.486902 96.476863 96.486902 96.476863C812.684549 420.512627 825.133176 432.780549 840.513255 432.780549zM820.424784 109.507765c-59.612863-13.964549-120.882196-1.927529-138.059294 1.385412-1.315137 0.110431-2.580078 1.325176-3.804863 1.576157-0.572235 0.13051-0.933647 0.722824-0.933647 0.722824-16.966275 4.808784-29.334588 20.48-29.334588 39.002353 0 22.056157 17.879843 40.217098 40.217098 40.217098 0 0 21.674667-2.911373 36.402196-8.653804 14.58698-5.88298 137.98902-4.397176 199.328627 98.575059 33.420549 75.13349 14.687373 125.409882 12.358275 133.50149 0 0-7.961098 19.516235-7.961098 38.751373 0 22.176627 17.869804 36.10102 40.026353 36.10102 18.542431 0 34.093176-2.489725 38.66102-33.842196l0.240941 0C1073.41302 237.457569 927.061333 134.384941 820.424784 109.507765z" p-id="5660"></path></svg>